<?xml version="1.0" encoding="UTF-8"?>
<!DOCTYPE svg PUBLIC "-//W3C//DTD SVG 1.1//EN" "http://www.w3.org/Graphics/SVG/1.1/DTD/svg11.dtd">
<!-- Creator: CorelDRAW X7 -->
<svg xmlns="http://www.w3.org/2000/svg" xml:space="preserve" width="3.99999in" height="2.19999in" version="1.1" style="shape-rendering:geometricPrecision; text-rendering:geometricPrecision; image-rendering:optimizeQuality; fill-rule:evenodd; clip-rule:evenodd"
viewBox="0 0 4000 2200"
 xmlns:xlink="http://www.w3.org/1999/xlink">
 <defs>
  <style type="text/css">
   <![CDATA[
    .str1 {stroke:black;stroke-width:1.81102;stroke-opacity:0.000000}
    .str0 {stroke:white;stroke-width:1.81102}
    .fil2 {fill:none}
    .fil0 {fill:#EBECEC}
    .fil1 {fill:#5E8CA8}
    .fil3 {fill:#EBECEC;fill-opacity:0.000000}
   ]]>
  </style>
 </defs>
 <g id="Layer_x0020_1">
  <metadata id="CorelCorpID_0Corel-Layer"/>
  <g id="_1774594398544">
   <path id="pk" class="fil0 str0" d="M1227 869c17,6 31,16 47,23 19,8 35,4 55,6 7,0 12,4 19,6 7,2 12,-3 19,-4 8,-2 15,2 23,2 7,1 14,-2 20,-3 8,0 23,0 29,-7 3,-3 -3,-7 -2,-11 3,-9 -1,-18 1,-28 3,-9 4,-7 11,-12 4,-3 5,-9 10,-11 6,-2 7,3 11,5 9,1 16,0 24,-3 -3,-4 -8,-5 -9,-9 7,0 15,-3 19,-9 6,-6 15,7 17,-2 5,4 7,3 10,8 2,5 6,4 10,2 11,-6 10,-20 7,-31 -1,-6 4,-7 6,-12 1,-4 2,-11 1,-15 -1,-5 4,-6 8,-6 6,-1 9,2 14,-2 7,-4 7,-5 5,-11 -1,-6 -4,-12 -8,-16 -9,-7 -10,-16 3,-11 10,4 32,9 36,-4 1,-4 2,-7 -1,-10 -1,-1 -7,-5 -5,-8 1,-1 2,-1 4,-1 -2,-4 2,-6 4,-8 2,-3 10,-7 10,-10 1,-3 2,-6 4,-8 1,-2 -3,-4 -4,-5 0,-2 0,-3 2,-3 2,-2 -1,-7 -1,-10 -1,-2 -5,-10 -6,-12 -3,-4 -7,-7 -10,-10 -4,-5 11,-20 16,-18 6,3 7,-4 11,-7 4,-4 9,-5 15,-6 11,-3 23,-1 34,0 6,0 15,-2 20,1 4,4 5,5 10,2 7,-4 25,-10 28,2 6,-8 17,0 20,6 3,6 13,4 18,10 3,4 5,9 6,14 1,4 0,10 1,14 1,3 8,9 11,12 4,4 10,-1 13,-2 -1,17 36,27 50,26 -4,3 -28,11 -27,17 1,2 -7,8 -4,6 2,-1 -5,2 -7,5 -1,2 -25,3 -30,5 -12,7 -22,-1 -35,-5 -11,-4 -23,-13 -35,-8 -8,4 -14,14 -5,18 8,5 -4,9 3,12 2,1 18,2 11,7 -6,5 -14,8 -4,15 9,7 -5,14 0,20 2,4 7,6 10,9 2,2 3,3 2,5 0,4 1,5 7,6 11,3 4,13 14,16 6,2 16,4 20,10 4,6 -13,10 -16,11 -9,3 -19,10 -12,19 6,7 -5,22 6,24 -1,4 -9,7 -14,11 -6,6 -19,17 -14,22 9,10 -10,12 -15,14 -5,1 -5,9 -7,13 -2,7 -5,15 -9,21 -6,10 -15,10 -23,17 -3,3 -5,8 -6,12 -1,7 -9,11 -13,17 -7,12 -14,7 -27,9 -5,1 -10,5 -15,4 -6,-2 -7,-9 -10,-13 -5,-10 -17,3 -20,8 -6,10 -14,18 -19,28 -7,11 -1,19 11,24 10,4 16,5 13,18 -1,8 -5,25 8,27 4,0 9,-2 12,2 3,3 -1,11 2,16 5,9 11,17 13,28 0,4 3,3 -2,5 -3,2 1,11 4,12 -8,4 -16,10 -21,-1 -2,-5 -7,-2 -11,-1 -2,1 -4,1 -5,1 -3,2 -2,5 -5,6 -11,3 -21,-8 -32,-8 -6,-1 -14,-1 -19,-4 0,4 2,16 -5,16 -7,-1 -17,-2 -17,7 0,-5 -1,-5 -2,0 -3,-2 -4,-6 -5,-9 1,3 1,5 0,8 -3,-2 -5,-4 -7,-7 1,7 -4,2 -8,4 0,-2 0,-4 0,-6 -5,3 -10,-4 -4,-7 -6,1 -14,-9 -7,-14 -7,-5 -1,-16 -7,-20 -3,-2 -20,-5 -19,-10 2,-11 0,-15 -4,-24 -4,-7 -15,-15 -18,-4 6,1 11,-4 14,5 -7,-5 -15,-4 -22,-2 -8,1 -15,-2 -22,-1 -4,1 -31,-3 -25,6 -4,0 -6,-2 -5,-5 -11,4 -18,-12 -24,-10 1,1 2,2 2,4 -5,0 -26,-9 -22,4 -5,-3 -46,-11 -43,0 -3,-1 -5,-5 -7,-7 -4,-2 -4,3 -7,4 -10,4 -16,-3 -15,-11 2,-11 4,-53 26,-45 -5,-18 33,-4 36,-14 1,-4 5,-19 3,-20 -4,-4 -9,-3 -14,-3 -7,-2 -4,-13 -4,-17 1,-9 -1,-21 -3,-29 0,-5 -7,-6 -10,-8 -6,-4 -11,-7 -17,-11 -13,-7 -17,-17 -23,-30 -5,-14 -16,-26 -25,-38z"/>
   <g id="ye">
    <path id="path2190" class="fil0 str0" d="M480 1522c0,-1 1,-3 1,-5 -6,0 -4,3 -1,5z"/>
    <path id="path2192" class="fil0 str0" d="M857 1648c0,-4 -5,-3 -7,-3 2,1 5,2 7,3z"/>
    <path id="path2194" class="fil0 str0" d="M914 1647c10,-1 25,2 31,-7 -5,-4 -12,-10 -19,-9 -3,0 -6,2 -9,1 -4,0 -6,-4 -10,-4 -4,1 -9,8 -6,11 3,4 9,7 13,8z"/>
    <path id="path2592" class="fil0 str0" d="M905 1443c-13,-2 -3,-27 -15,-30 7,-9 -11,-39 -14,-50l-11 -36c-38,3 -77,7 -115,8 -32,6 -49,19 -58,35 -8,9 -14,33 -30,30 -10,-2 -7,-17 -17,-17 -13,0 -24,-2 -37,-5 -7,-2 -14,-8 -21,-9 -8,-1 -16,-1 -24,-1 -10,-1 -18,3 -29,1 -5,-1 -6,-7 -12,-9 -5,-1 -10,2 -13,7 -3,4 -4,10 -4,16 0,3 5,8 2,11 -3,3 -6,6 -9,10 -1,1 -3,3 -6,4 -5,2 -3,4 -2,10 0,9 -4,12 -6,20 -2,7 3,15 2,22 -2,-1 -9,-3 -8,1 -1,-1 7,4 7,4 4,5 5,10 5,16 2,12 0,25 3,37 1,5 4,9 5,13 2,6 -1,12 -2,17 -1,11 11,22 6,33 5,1 9,-1 13,1 5,3 9,5 15,5 12,-1 18,-9 30,-1 0,-4 4,-7 4,-1 3,-2 4,-5 6,-7 3,-4 7,-3 11,-6 9,-5 10,-10 21,-12 11,-1 21,0 32,2 6,1 17,-4 23,-5 9,-2 15,-9 23,-13 3,-1 6,-3 9,-4 3,1 6,2 8,3 3,1 6,1 9,0 20,-1 26,-20 45,-26 8,-3 15,-4 24,-4 11,-1 20,-7 31,-8 8,-1 15,-1 22,-3 8,-2 11,-7 17,-9 5,-2 16,-1 18,-7 3,-8 -2,-15 2,-23 7,-15 27,-12 40,-20z"/>
   </g>
   <g id="ae">
    <path id="path2704" class="fil1 str0" d="M947 1103c2,0 5,-1 6,-3 -3,-3 -7,-3 -10,1 1,0 2,1 4,2z"/>
    <path id="path2784" class="fil1 str0" d="M859 1085c3,-1 4,0 3,4 2,-1 3,-2 4,-3 2,4 0,9 2,12 2,4 9,4 12,4 5,0 9,0 13,-3 2,-1 5,-5 7,-5 2,-1 8,4 11,4 5,1 10,2 15,2 13,1 22,9 36,2 -1,-2 -2,-4 -3,-5 4,-2 3,3 6,3 5,0 10,-5 12,-8 7,-10 8,-16 18,-23 10,-6 15,-19 24,-25 11,-7 17,-8 21,-21 7,2 3,11 2,15 -1,8 8,5 8,14 0,9 5,21 -3,27 -16,13 -10,4 -12,-3 -1,-6 -7,4 -7,8 0,3 -1,3 -1,6 0,3 2,8 1,12 -1,11 10,7 5,14 -4,5 -15,-1 -20,4 10,6 -8,31 -12,46 0,11 -6,13 -15,10 -11,-4 -22,-7 -34,-10 -11,-3 -23,-6 -35,-9 -8,-2 -19,-2 -24,-10 -5,-9 -10,-18 -15,-26 -4,-6 -8,-12 -12,-18 -4,-6 -4,-12 -7,-18z"/>
   </g>
   <path id="af" class="fil0 str0" d="M1207 672c-1,-5 3,-9 7,-11 7,-3 4,-6 1,-11 10,0 12,-13 13,-20 1,-4 -3,-9 0,-13 2,-3 3,-8 4,-11 2,-8 12,4 15,6 5,4 10,1 15,3 6,2 10,8 11,14 5,-7 14,-2 21,-6 3,-3 7,-4 9,-8 2,-3 -1,-5 4,-7 -2,-3 -4,-5 -5,-9 16,4 35,-5 49,-12 13,-8 1,-38 17,-42 6,-2 15,3 20,0 6,-2 1,-12 8,-12 5,-1 11,6 15,8 6,5 12,4 19,3 8,0 15,1 21,8 5,7 13,1 20,4 2,1 7,9 9,11 5,6 6,0 12,2 0,-7 11,-6 15,-9 4,-3 2,1 6,0 2,-1 2,-4 4,-4 6,2 6,13 14,12 8,-1 0,-13 4,-17 9,-10 23,5 29,0 6,-5 -2,-9 -3,-13 0,-5 7,-11 10,-15 7,-14 25,-13 31,2 2,3 -2,13 1,15 3,1 9,-3 11,3 2,5 -1,17 -2,23 0,6 0,13 2,20 5,20 18,11 30,3 5,-3 13,2 16,-3 5,-8 10,-12 18,-15 6,-2 29,1 18,10 6,4 18,-2 24,-4 5,-2 21,4 23,10 -5,2 -9,-2 -13,-1 -6,2 -3,7 2,10 -5,1 -11,2 -15,5 -7,5 -11,-4 -17,-3 -13,1 -27,-2 -39,-1 -6,0 -11,3 -17,3 -7,1 -9,10 -13,11 -5,2 -6,-3 -12,3 -2,3 -8,7 -9,11 -2,4 4,7 6,9 5,8 10,15 12,25 -6,6 2,7 2,11 -4,2 -4,5 -6,8 -3,7 -10,8 -12,12 -1,2 -2,3 -1,5 -2,0 -5,0 -4,3 0,3 4,5 6,8 7,9 -6,16 -12,17 -6,0 -13,-1 -19,-3 -3,-1 -10,-5 -13,-3 -7,5 10,13 11,20 0,4 6,11 4,15 -3,3 -12,7 -16,6 -16,-2 -12,4 -12,10 0,6 -2,12 -6,15 -4,4 -1,11 0,16 1,9 -2,20 -11,24 -6,2 -8,-1 -10,-5 -1,-2 -6,-5 -8,-5 -2,-1 1,1 -2,3 -20,-10 -9,6 -34,7 1,4 6,5 9,9 -6,2 -13,3 -20,3 -6,0 -9,-5 -12,-5 -6,-1 -10,10 -15,13 -6,3 -7,2 -9,11 -1,7 1,13 1,21 -1,3 -1,5 -2,7 0,3 2,5 3,7 3,9 -30,11 -34,11 -7,1 -12,4 -19,2 -7,-1 -15,-4 -22,-2 -7,3 -11,6 -19,3 -6,-3 -14,-6 -21,-6 -16,1 -35,2 -50,-5 -18,-7 -29,-16 -48,-23 9,-8 16,-18 25,-28 7,-8 14,-17 11,-28 -4,-21 -37,-9 -39,-31 -1,-14 -1,-27 -5,-40 -4,-12 -10,-24 -1,-35 7,-9 6,-8 -4,-12 -9,-3 -8,-18 -7,-23z"/>
   <g id="bd">
    <path id="path3240" class="fil0 str0" d="M2396 1308c-1,0 -2,0 -4,0 2,1 4,3 7,3 -1,-1 -2,-2 -3,-3z"/>
    <path id="path3242" class="fil0 str0" d="M2394 1334c0,2 1,4 3,6 0,-3 5,-5 5,-5 0,-5 -5,-4 -8,-1z"/>
    <path id="path3244" class="fil0 str0" d="M2399 1327c1,1 2,2 3,3 -1,-1 -1,-2 -3,-3z"/>
    <path id="path3246" class="fil0 str0" d="M2398 1342c1,4 5,7 5,11 1,3 0,6 0,9 -1,2 -6,13 0,6 -1,1 -1,3 0,4 5,3 8,-16 8,-19 -1,-5 -8,-10 -8,-14 1,-5 -5,-2 -5,3z"/>
    <path id="path3248" class="fil0 str0" d="M2396 1369c1,2 3,-1 1,3 2,-2 3,-4 2,-6 -1,1 -2,2 -3,3z"/>
    <path id="path3250" class="fil0 str0" d="M2402 1353c-1,2 -1,3 0,5 0,-2 0,-3 0,-5z"/>
    <path id="path3252" class="fil0 str0" d="M2417 1370c10,-3 5,-13 2,-20 1,7 0,14 -2,20z"/>
    <path id="path3254" class="fil0 str0" d="M2436 1360c5,-3 -1,-10 -3,-12 -2,4 0,9 3,12z"/>
    <path id="path3256" class="fil0 str0" d="M2451 1382c-1,3 -2,5 -1,8 1,-3 1,-5 1,-8z"/>
    <path id="path3258" class="fil0 str0" d="M2452 1403c6,-2 2,-10 -2,-13 1,4 1,9 2,13z"/>
    <path id="path3340" class="fil0 str0" d="M2306 1152c0,-1 1,-3 2,-4 4,3 11,6 12,12 1,5 10,6 13,8 0,-4 -2,-6 -4,-9 7,0 7,6 9,10 3,7 11,10 17,14 2,-3 3,-6 1,-10 12,1 12,24 12,32 -1,4 -2,8 3,11 8,4 17,7 26,8 19,2 38,3 56,7 8,2 30,19 10,15 5,12 -11,21 -13,31 -3,-4 -8,2 -10,-3 0,7 -7,5 -11,4 2,5 -6,13 -7,19 -1,8 5,20 7,28 1,-2 2,-5 2,-8 3,3 7,23 16,12 3,-4 -1,-12 2,-17 3,-5 4,-6 3,-12 5,5 11,-6 14,3 3,10 3,21 5,32 2,13 6,26 7,40 2,13 1,27 5,39 -5,1 -10,-7 -15,-7 -8,0 0,25 0,29 -3,-6 -9,-14 -10,-20 -1,-7 -1,-11 -1,-18 0,-13 -16,-28 -5,-39 -3,1 -4,5 -5,8 -2,-11 -14,-21 -12,-33 -1,5 -7,6 -10,9 -1,1 -2,3 -1,4 -4,1 -7,-1 -8,-4 1,1 1,3 0,4 -6,2 -12,-19 -13,-21 -2,-3 -2,-5 -1,-8 1,-5 -1,-7 -2,-11 -1,-3 5,-4 3,-7 -1,3 4,2 -4,2 1,-1 1,-3 1,-4 -2,1 -4,1 -6,0 2,1 7,11 1,9 -3,0 -8,-3 -10,-4 5,4 12,7 14,13 2,4 -2,6 -5,7 3,5 0,9 -3,13 7,1 4,8 3,13 1,-2 2,-3 3,-4 6,6 5,20 -5,21 1,-3 1,-5 0,-8 0,6 -2,11 -4,17 -2,7 -11,3 -6,-2 -2,1 -3,2 -4,3 -1,-7 7,-8 8,-14 -3,3 -6,5 -9,7 0,-2 1,-4 3,-7 -2,3 -4,5 -6,7 -2,-8 -2,-15 2,-22 -9,2 -2,11 -6,16 -2,4 3,5 0,10 -2,4 -6,1 -8,-2 0,3 -1,5 -1,7 -6,0 0,-22 0,-26 -2,5 0,10 -2,15 -2,-4 -3,-9 -3,-14 -1,8 5,20 -3,27 -2,-4 0,-8 -2,-12 1,4 -3,12 -6,14 2,-7 -5,-13 -5,-21 0,-9 -5,-17 -5,-25 -1,-5 -1,-9 -2,-13 -1,-6 1,-8 1,-13 0,-3 -4,-3 -6,-4 -4,-2 -1,-6 0,-9 1,-6 -11,-8 -9,-16 1,-5 5,-5 6,-9 1,-4 0,-9 -1,-13 -1,-6 -13,-8 -18,-12 -3,-3 -9,-7 -8,-11 0,-5 4,-8 5,-12 5,12 10,-9 12,-9 5,-1 14,-1 17,2 6,-7 -5,-6 -5,-13 1,-6 -7,-2 -10,-5 -5,-4 -6,-10 -12,-13 -14,-8 -4,-24 9,-27 -1,-4 -5,-6 -8,-7z"/>
   </g>
   <g id="th">
    <path id="path3902" class="fil0 str0" d="M2696 2048c-3,7 -3,14 -1,20 6,-4 7,-15 1,-20z"/>
    <path id="path3904" class="fil0 str0" d="M2705 2053c1,3 2,6 2,8 1,-3 0,-6 -2,-8z"/>
    <path id="path3906" class="fil0 str0" d="M2726 2086c0,-4 -1,-6 -3,-9 0,3 1,6 3,9z"/>
    <path id="path3908" class="fil0 str0" d="M2746 2123c-3,3 -4,7 1,8 -1,-3 -1,-5 -1,-8z"/>
    <path id="path3910" class="fil0 str0" d="M2768 1992c-3,2 -3,5 0,7 2,-2 3,-4 0,-7z"/>
    <path id="path3912" class="fil0 str0" d="M2768 1982c-1,3 1,4 3,5 -1,-2 -2,-3 -3,-5z"/>
    <path id="path3914" class="fil0 str0" d="M2865 1891c1,0 2,0 4,1 0,-3 -2,-6 -4,-8 0,3 0,5 0,7z"/>
    <path id="path3916" class="fil0 str0" d="M2875 1904c-1,3 -1,5 1,8 1,-3 1,-6 -1,-8z"/>
    <path id="path3918" class="fil0 str0" d="M2671 1562c2,5 11,6 15,3 4,-3 -2,-15 0,-20 1,-3 3,-5 4,-8 0,-5 -3,-8 -1,-13 1,-3 8,-13 10,-13 7,2 13,6 19,5 4,0 7,-3 10,-3 3,0 4,4 7,0 4,-4 0,-12 6,-13 5,-1 21,5 13,-8 7,0 26,-9 24,5 4,-1 6,-6 10,-4 2,1 7,10 8,12 3,5 -3,10 -4,14 -2,6 1,10 5,14 1,2 6,1 7,2 4,2 3,-2 5,-3 2,0 2,1 4,0 2,0 5,0 6,0 8,2 6,15 9,28 1,4 -4,8 -3,13 2,8 -2,6 -5,12 -1,2 2,7 2,10 0,5 1,8 -1,13 -6,12 -10,22 2,23 1,0 20,-14 24,-23 6,4 8,-6 13,-6 3,1 7,8 10,10 2,1 8,2 9,5 4,8 11,-3 17,-1 3,1 5,-11 11,-12 -8,-10 19,-2 21,-1 16,7 20,31 34,41 12,8 2,32 4,44 2,7 3,10 7,15 8,10 12,12 21,18 -9,4 3,10 6,14 9,7 -11,19 0,17 -2,4 -6,7 -4,12 1,2 4,4 3,7 -2,9 1,18 -9,23 -6,3 -11,10 -14,1 -4,-9 -19,-2 -26,-5 -4,-2 -9,-1 -14,-1 -6,1 -8,-3 -12,-4 -7,-1 -14,1 -20,3 -10,2 -13,12 -17,20 -1,3 -6,7 -10,9 -2,2 -6,2 -8,2 2,8 -2,13 4,25 3,6 3,14 8,20 4,6 5,12 4,20 -2,11 6,18 4,27 1,-5 -3,-8 -5,-12 -2,-6 -1,-13 -8,-16 0,2 0,5 -1,7 -1,-5 -18,-10 -7,-15 -3,1 -5,-1 -5,-4 -1,9 -10,-5 -11,-9 -1,7 -4,-8 -12,-6 -3,1 -7,3 -11,2 -4,-1 -10,-5 -15,-4 -10,1 -3,-8 -3,-14 0,-4 0,-8 0,-11 0,-5 4,-9 4,-13 -5,3 -16,-2 -17,-7 1,11 -30,-2 -22,15 3,9 0,13 -3,22 -3,8 3,18 0,26 -1,4 -4,6 -6,9 -3,4 -2,8 -5,12 -5,6 -7,16 -10,24 -3,10 -6,17 -11,25 -2,3 0,12 -6,11 6,9 -3,23 0,34 2,5 5,9 2,13 -4,5 6,8 9,7 11,-5 17,-4 17,10 0,5 3,38 11,28 3,10 2,20 4,30 2,9 5,19 4,28 -6,-2 -4,-30 -12,-26 -5,3 1,15 3,18 2,3 4,6 7,9 2,3 6,2 8,5 5,6 5,11 14,13 7,1 15,-1 20,4 6,6 6,15 12,21 6,6 10,9 5,18 -2,4 -5,12 -10,12 -4,0 -4,-6 -7,-7 -7,-4 -13,9 -18,8 -10,-1 -7,-10 -3,-15 5,-5 -1,-11 -5,-13 -6,-2 -2,-10 -10,-12 -7,-2 -11,-3 -15,-9 -5,-9 -4,6 -7,9 0,-11 -26,-24 -13,-34 -10,4 -5,-10 -9,-13 0,6 -5,4 -6,0 -2,-4 -1,-11 -4,-15 -3,-3 -8,0 -8,-4 0,-4 1,-5 -1,-8 -3,-5 -2,-5 -7,-6 -3,-1 -2,-6 -2,-8 -1,-4 -3,-9 -7,-8 -6,0 -4,5 -6,9 -13,-5 -8,-23 -5,-32 5,-18 11,-37 17,-55 2,-7 9,-15 10,-23 1,-8 4,-8 8,-15 5,-9 32,-31 25,-42 -3,-4 -4,-17 -5,-22 -1,-8 -3,-11 -7,-19 -1,-4 -5,-16 -4,-20 3,-10 4,-18 0,-28 -5,-17 -19,-29 -28,-44 -4,-7 -8,-13 -8,-21 0,-5 3,-15 8,-8 0,-6 6,-4 8,-7 2,-5 0,-18 0,-24 0,-10 7,-4 11,-9 2,-3 3,-11 0,-14 -1,3 -3,5 -5,8 -6,-9 -7,-19 -8,-28 -1,-7 -10,-14 -13,-19 -6,-8 -13,-16 -18,-25 -2,-5 -1,-8 -1,-13 -1,-5 -5,-9 -4,-13 -8,1 -10,-10 -11,-16z"/>
   </g>
   <path id="iq" class="fil0 str0" d="M375 606c25,-9 46,-17 68,-29 7,-4 15,-8 20,-14 8,-10 4,-25 6,-29 2,-17 7,-19 7,-27 0,-9 -11,-27 0,-34 6,-4 13,-3 20,-7 5,-3 20,-13 17,-18 -2,-2 1,1 4,0 5,-1 7,-5 9,-8 3,-3 22,2 27,5 3,1 6,3 10,4 6,2 8,-2 13,-2 14,-1 3,15 10,16 6,0 9,-8 15,-7 8,1 6,14 9,19 1,2 3,2 4,5 2,3 -1,8 1,11 5,6 18,13 11,22 9,-1 12,8 15,9 7,4 8,-2 23,4 -2,6 -8,4 -11,8 -6,8 6,15 6,22 -1,9 -11,-2 -12,7 0,4 -5,3 -6,7 -2,4 0,8 0,12 -3,0 -5,-1 -8,-3 -1,4 -4,6 -1,10 3,4 5,6 3,11 -3,5 -8,6 -4,11 4,4 7,8 11,12 4,4 25,26 11,28 5,2 3,8 8,8 6,-1 9,3 14,7 8,6 13,18 25,21 6,1 15,21 19,27 7,7 2,14 -2,24 -1,4 -2,17 4,18 3,1 7,1 8,3 3,4 2,10 1,14 -2,8 2,11 10,19 4,4 2,14 9,16 -4,0 -24,-5 -24,-9 2,7 -9,0 -14,0 -6,-2 -15,-1 -19,5 -8,13 -10,41 -32,36l-55 -13c-18,-5 -17,-15 -33,-28 -43,-40 -84,-87 -134,-116 -18,-11 -35,-12 -51,-18 12,-10 -2,-7 -4,-12 -1,-1 -1,-4 -1,-5 4,-3 1,-6 0,-11 -3,-10 -5,-20 -7,-31z"/>
   <g id="ir">
    <path id="path4560" class="fil0 str0" d="M931 977c1,0 2,0 4,0 -3,-2 -5,-2 -8,-2 1,1 3,2 4,2z"/>
    <path id="path4562" class="fil0 str0" d="M960 995c1,-3 0,-4 -4,-2 1,1 3,1 4,2z"/>
    <path id="path4564" class="fil0 str0" d="M1031 983c-7,4 -12,13 -22,10 -2,9 13,1 16,0 4,-1 8,1 11,-1 5,-1 7,-9 13,-9 -6,-6 -12,3 -18,0z"/>
    <path id="path4606" class="fil0 str0" d="M575 351c11,-2 14,6 15,-11 1,-7 7,-3 11,0 4,4 6,10 10,14 3,4 8,8 11,12 7,8 10,12 22,16 7,2 17,4 24,2 4,0 19,-10 20,-14 2,-4 8,-4 12,-6 4,-3 8,-6 12,-9 11,-6 19,6 25,15 -15,3 3,17 -5,18 -15,2 -1,12 5,17 4,3 7,8 12,10 1,1 7,1 8,2 4,13 1,32 13,41 11,7 24,5 35,12 7,4 8,12 14,17 5,6 15,11 22,15 13,8 32,15 48,12 19,-3 43,-9 62,-4 -4,1 -8,0 -12,0 2,3 13,8 15,3 2,-5 -4,-20 -5,-25 9,3 16,3 24,1 11,-3 4,-8 10,-14 5,-6 16,-12 24,-13 11,-3 20,4 31,3 -3,-6 6,-6 10,-6 6,0 13,3 19,3 8,0 8,1 11,9 3,8 14,9 21,11 7,2 12,11 20,13 9,2 17,1 26,5 8,5 11,9 15,17 4,8 15,8 22,14 5,5 6,13 12,17 7,6 26,-1 31,6 4,6 3,20 4,25 0,6 -5,4 0,8 2,3 4,15 4,18 0,7 -6,10 -6,17 1,9 2,28 -12,28 1,2 5,6 5,8 -1,4 -10,4 -12,8 -3,8 -1,28 9,30 13,3 0,12 -3,18 -4,9 7,32 9,43 1,12 -1,24 6,34 6,8 21,6 29,11 9,6 6,20 3,27 -3,8 -11,14 -16,20 -4,6 -14,18 -17,20 3,5 6,8 8,11 17,19 21,44 35,55 5,3 9,5 14,8 4,3 9,7 14,8 7,1 7,26 6,33 -1,22 3,16 16,18 6,1 1,16 0,22 -3,13 -42,-3 -37,14 -4,-1 -11,1 -14,4 -8,9 -9,25 -11,38 -1,3 0,11 -6,8 1,10 -19,-1 -23,-2 -3,-2 -12,-2 -13,-8 0,-7 -9,-4 -6,0 -2,0 -21,-3 -23,-4 -5,-6 -17,-7 -25,-5 -6,1 -9,-3 -14,-7 -5,-5 -10,-3 -17,-5 -5,-2 -10,1 -15,-1 -4,-3 -5,-10 -11,-4 2,-8 -14,-7 -18,-12 -8,-10 -8,-30 -9,-42 -1,-15 -14,-25 -29,-26 -6,0 -12,5 -18,6 -6,1 -13,1 -10,8 1,4 -12,1 -13,1 -7,1 -11,7 -17,10 -10,3 -18,-11 -27,-12 -12,-2 -19,0 -25,-12 -3,-5 -10,-8 -16,-12 -6,-4 -13,-10 -20,-14 8,-6 -8,-14 -12,-16 -4,-3 -7,-6 -11,-8 -5,-2 -12,0 -17,-4 -9,-9 -11,-16 -16,-28 -3,-5 0,-12 -4,-17 -3,-3 -9,-5 -8,-10 6,1 6,-4 1,-6 -3,-1 -10,-1 -7,-7 5,-6 -6,-16 -9,-20 -6,-7 -9,-14 -12,-23 -3,-15 -17,9 -22,0 -4,-6 -10,-3 -12,-9 -1,-3 -9,-5 -11,-9 4,0 8,2 12,1 -1,-5 -7,-7 -12,-5 1,1 2,2 3,4 -11,-3 4,25 -14,15 0,4 -3,4 -6,3 -4,-3 -4,-8 -5,-12 -2,-8 -13,-10 -13,-20 0,-6 4,-18 -5,-19 -13,-1 -7,-19 -4,-28 4,-13 -2,-16 -8,-25 -7,-10 -5,-15 -16,-19 -9,-2 -14,-13 -21,-19 -3,-3 -8,-7 -13,-7 -8,0 -3,-4 -9,-8 15,-2 -10,-26 -14,-31 -2,-3 -5,-6 -8,-9 -4,-5 1,-5 3,-10 2,-5 2,-7 -2,-11 -3,-3 0,-7 1,-11 3,2 5,3 8,3 0,-3 -1,-6 -1,-10 0,-6 6,-4 7,-9 2,-6 2,-4 7,-3 5,0 5,-4 4,-8 -3,-5 -9,-10 -6,-17 2,-5 10,-3 12,-9 -4,1 -6,-2 -9,-2 -5,0 -10,1 -14,-2 -6,-4 -6,-9 -15,-8 7,-13 -14,-20 -12,-28 1,-6 1,-7 -4,-10 -1,-1 -7,-19 -6,-21 3,-8 -3,-5 -6,-11 -3,-6 0,-15 -5,-17 -2,-2 -11,-6 -10,-9 1,-5 5,-13 9,-16 -11,-4 -4,-18 -8,-25 -3,-3 -1,-6 -3,-10 -1,-2 -4,-11 -6,-16z"/>
   </g>
   <g id="mm">
    <path id="path4568" class="fil0 str0" d="M2488 1455c-1,2 0,3 2,4 -1,-1 -1,-3 -2,-4z"/>
    <path id="path4570" class="fil0 str0" d="M2494 1476c1,3 3,6 4,9 -1,-5 -2,-9 -5,-13 0,1 1,3 1,4z"/>
    <path id="path4572" class="fil0 str0" d="M2513 1481c-2,2 2,6 4,8 0,-3 -2,-6 -4,-8z"/>
    <path id="path4574" class="fil0 str0" d="M2522 1531c-2,0 -4,0 -6,1 11,16 13,0 6,-1z"/>
    <path id="path4576" class="fil0 str0" d="M2535 1510c-2,-5 -7,-5 -10,-9 -6,5 4,16 10,9z"/>
    <path id="path4578" class="fil0 str0" d="M2563 1658c-3,3 -14,11 -9,15 5,-3 11,-8 9,-15z"/>
    <path id="path4580" class="fil0 str0" d="M2570 1674c-2,2 -2,1 -1,4 0,-1 0,-3 1,-4z"/>
    <path id="path4582" class="fil0 str0" d="M2678 1660c-3,1 -4,9 -2,9 6,1 6,-8 2,-9z"/>
    <path id="path4584" class="fil0 str0" d="M2692 1857c1,-1 2,-2 3,-4 -5,-1 -6,0 -3,4z"/>
    <path id="path4586" class="fil0 str0" d="M2694 1887c0,-3 0,-6 -2,-8 1,2 1,5 2,8z"/>
    <path id="path4588" class="fil0 str0" d="M2695 1863c1,0 2,0 3,1 -1,-2 -2,-4 -3,-5 0,1 0,3 0,4z"/>
    <path id="path4590" class="fil0 str0" d="M2705 1827c3,-3 2,-6 -1,-8 0,3 1,5 1,8z"/>
    <path id="path4592" class="fil0 str0" d="M2701 1931c0,-4 -1,-9 -5,-12 -1,1 -2,3 -3,4 6,-2 7,5 8,8z"/>
    <path id="path4594" class="fil0 str0" d="M2698 1897c7,0 7,-12 5,-15 -2,5 -4,10 -5,15z"/>
    <path id="path4596" class="fil0 str0" d="M2706 1855c1,3 12,-13 -1,-12 1,4 2,8 1,12z"/>
    <path id="path4598" class="fil0 str0" d="M2695 1964c0,1 0,3 0,4 3,-1 4,-3 4,-6 -1,0 -3,1 -4,2z"/>
    <path id="path4600" class="fil0 str0" d="M2708 1891c1,2 3,3 5,4 3,-12 -10,-16 -5,-4z"/>
    <path id="path4602" class="fil0 str0" d="M2710 1873c1,2 2,4 3,5 1,0 3,-1 4,-3 -3,-1 -5,-3 -7,-6 0,1 0,2 0,4z"/>
    <path id="path4604" class="fil0 str0" d="M2712 1854c1,-2 2,-1 1,-4 0,1 -1,2 -1,4z"/>
    <path id="path4608" class="fil0 str0" d="M2464 1417c0,-3 0,-11 4,-11 6,0 8,6 15,8 -3,-10 -3,-21 -4,-31 0,0 5,-4 4,-8 4,1 5,10 10,9 4,-1 3,-8 4,-10 7,6 5,-7 4,-10 -3,-11 -1,-18 -1,-29 7,7 9,-5 9,-10 1,-12 0,-23 -2,-35 1,0 3,1 4,2 4,3 4,1 8,1 4,0 17,7 20,10 2,-18 29,-46 17,-61 -6,-8 10,-17 13,-24 3,-8 6,-13 3,-20 -3,-7 -3,-19 4,-23 3,-1 9,2 10,-2 0,-3 7,-5 10,-7 4,-3 6,-6 9,-9 4,-7 14,-5 21,-5 3,0 7,-2 10,1 3,4 6,13 13,11 0,-6 -6,-9 -9,-14 -5,-8 0,-14 6,-19 10,-7 5,-6 6,-15 1,-4 3,-2 3,-5 0,-4 4,-9 5,-12 6,8 20,11 25,22 1,4 0,8 1,12 2,6 6,11 8,16 3,-1 5,-3 3,-6 15,9 15,25 17,41 1,8 1,15 1,23 -1,3 2,15 -6,11 1,3 12,17 0,12 -2,-1 -6,5 -6,7 0,5 -6,3 -9,3 -1,2 -4,23 -12,14 -1,7 -5,12 -2,19 -7,0 -6,5 -7,10 0,6 4,7 6,12 0,2 2,8 1,10 -2,4 -8,8 -4,13 2,2 16,-7 19,-8 10,-4 21,6 31,0 0,6 -8,8 -6,14 0,3 3,5 5,8 2,3 -2,6 0,8 6,7 3,15 8,19 8,4 16,-2 20,12 -8,-1 -6,13 -6,18 0,6 -12,19 -3,19 6,0 22,0 27,6 6,7 -4,16 8,18 -2,2 -1,7 1,10 2,4 6,-4 10,-1 8,7 20,-5 27,-9 0,6 5,11 -2,15 -3,3 -10,4 -12,7 -2,2 -12,20 -4,16 -1,6 -10,2 -13,4 -7,4 -6,13 -8,19 -3,-8 -14,0 -24,-1 3,3 5,7 0,8 -4,2 -9,0 -13,0 -5,0 -3,9 -4,12 -2,3 -5,4 -8,2 -2,-2 -8,3 -13,3 -2,0 -17,-5 -17,-5 2,-2 -10,9 -10,15 0,3 1,6 1,9 1,4 -5,9 -4,13 0,5 5,11 1,16 -4,4 -14,3 -16,-3 1,6 3,17 11,16 -1,3 1,6 3,9 2,5 0,9 1,14 2,8 12,18 16,24 5,8 12,11 16,23 2,9 2,19 8,28 2,-3 4,-5 5,-8 4,5 3,13 -2,16 -5,3 -10,-2 -9,9 1,5 2,15 1,21 -2,4 -9,2 -9,8 -3,-4 -5,-1 -7,3 -2,5 1,13 3,18 6,14 18,26 25,37 8,13 12,25 8,38 -1,6 -2,6 0,13 2,7 2,10 6,16 3,7 5,12 5,18 0,6 5,18 6,22 2,6 -8,17 -13,24 -6,6 -11,12 -19,23 -4,5 -1,9 -4,13 -4,6 -5,14 -10,20 -4,-8 -2,-18 -3,-27 0,-3 -2,-6 2,-8 4,-2 1,-3 4,-6 4,-6 6,-14 6,-22 -1,-4 -2,-16 5,-15 -1,-2 -1,-4 -1,-6 -2,2 -5,4 -8,4 0,-5 7,-8 0,-8 9,-3 -3,-11 4,-14 -3,0 -5,-2 -6,-5 2,0 4,0 6,-1 -3,-3 -5,-7 1,-8 -5,-2 -2,-6 -2,-10 0,-8 -2,-15 -4,-22 -2,-7 -5,-15 -8,-22 -2,-6 -2,-14 -5,-21 1,6 2,19 -3,23 2,-4 -1,-9 -1,-13 0,-4 1,-11 0,-15 0,-3 -12,-30 -3,-24 -1,-2 -1,-3 -2,-4 -1,0 -3,1 -4,1 -5,-17 -1,-35 -5,-52 -1,-3 -4,-5 -5,-8 0,-3 1,-6 1,-9 1,-5 -2,-15 5,-17 -4,0 -12,2 -14,-2 -5,-8 -9,-17 -8,-27 -4,2 -3,-3 -6,-6 -2,-3 -6,-6 -6,-10 -1,1 -1,9 -1,11 -1,7 2,14 -2,20 -3,5 -7,11 -13,11 -7,0 -13,-10 -8,-15 -8,1 -2,7 0,12 2,7 -6,13 -11,7 6,5 -8,11 -12,6 1,6 -6,25 -15,20 -5,-2 2,-15 1,-19 0,1 -7,18 -3,6 -2,4 -3,7 -4,11 -4,-3 -4,-14 0,-16 -5,-5 -6,22 -13,15 -3,-4 2,-21 5,-22 -6,1 -8,13 -12,17 -1,-1 -3,-2 -4,-4 5,-1 7,-6 8,-10 -2,3 -4,9 -9,9 6,-7 5,-17 7,-26 -1,0 -2,0 -2,0 2,6 -8,20 -15,21 -9,3 3,-33 4,-37 2,-3 2,-16 4,-17 7,-5 2,-21 0,-27 -2,-8 0,-20 -5,-26 -2,-3 -3,-7 -4,-10 -2,-5 -8,-9 -1,-9 -4,-4 -9,-6 -9,-12 1,-5 2,-13 0,-18 0,4 1,12 -5,7 3,4 4,11 1,16 -8,-5 -13,-15 -17,-24 -2,-2 3,-4 4,-1 1,3 4,4 7,5 4,2 11,0 7,-7 -2,-4 -13,-9 -6,-13 -3,-1 -6,-2 -9,-3 2,-2 2,-5 2,-7 -3,1 -8,-4 -9,-7 -3,-4 -7,-2 -12,-4 2,4 3,8 4,12 -1,-2 -2,-5 -3,-8 -1,3 -1,5 0,8 -4,-7 -6,-11 -1,-18 -2,0 -3,0 -5,0 1,-3 3,-6 4,-8 -1,0 -1,0 -2,1 0,-3 0,-6 1,-9 -3,6 -4,13 -7,19 -5,-3 -3,-5 -2,-9 2,-5 -3,-9 -5,-13 0,4 2,9 -1,12 -1,-7 -6,-14 -12,-18 -6,-4 -6,-16 -8,-25z"/>
   </g>
   <g>
    <path id="kg" class="fil0" d="M1526 431c7,-10 19,-5 24,-2 3,2 17,8 10,12 7,-1 14,-9 17,-11 7,-5 9,-6 16,-1 3,1 4,3 6,4 3,2 4,-4 6,1 2,3 8,-1 12,-1 -11,-7 12,-6 14,-5 -1,-3 -3,-6 -2,-9 6,3 11,5 15,-2 1,-2 12,-4 8,-7 -2,-1 -9,-3 -11,-3 -9,-1 -13,-13 -23,-8 1,-10 -5,-6 -10,-12 -5,-5 -12,-11 -14,-17 0,4 1,8 -1,11 -1,2 -3,2 -5,2 1,2 1,4 -1,6 -6,-7 -21,-1 -24,-12 -1,-5 -4,-6 -9,-5 -5,1 -10,-6 -14,-6 3,-13 26,-21 36,-27 -11,-8 -19,-2 -11,-16 2,-3 1,-7 6,-9 4,-2 10,1 14,-2 9,-4 29,6 37,10 2,1 5,2 7,4 4,4 7,3 12,4 5,1 10,8 16,7 -5,-6 -8,-25 1,-29 2,-1 19,-3 17,-6 11,4 21,12 31,18 4,3 22,11 27,10 4,-2 1,-7 6,-6 8,1 15,4 23,4 6,0 11,-2 17,-1 6,1 10,6 16,4 6,-1 12,2 17,3 7,2 14,2 21,3 11,2 28,9 36,17 4,4 5,8 11,9 5,0 8,1 12,4 5,3 13,9 15,15 0,2 -15,6 -19,8 -10,6 -25,8 -36,14 -5,2 -8,4 -9,9 0,5 -5,10 -11,9 -6,-1 -11,0 -16,0 -7,0 -13,-3 -19,-4 -8,-1 -9,9 -11,16 -5,19 -14,11 -25,13 -12,2 -9,-10 -14,-15 -3,-3 -9,4 -12,6 -6,2 -9,-2 -15,-4 -1,2 -1,5 0,8 -5,-1 -9,3 -12,6 -4,5 -12,1 -17,6 -6,7 7,19 -3,24 -5,2 -9,-3 -14,0 -5,3 -12,2 -18,0 -7,-2 -22,-5 -24,6 -8,-10 -16,-5 -20,-10 -1,1 0,-3 -2,-5 -2,0 -5,-1 -7,-2 -2,-2 -1,-4 -3,-6 -1,-1 -17,9 -23,8 -4,-2 -5,-3 -7,-7 -4,-5 -11,-4 -16,-3 0,-1 0,-3 0,-4 -4,2 -8,2 -13,1 -12,-3 -16,3 -20,-1 -5,-4 -4,-27 2,-17 1,-3 2,-5 3,-7l0 0zm0 0l0 0 0 0z"/>
    <path id="1" class="fil2 str0" d="M1526 431c7,-10 19,-5 24,-2 3,2 17,8 10,12 7,-1 14,-9 17,-11 7,-5 9,-6 16,-1 3,1 4,3 6,4 3,2 4,-4 6,1 2,3 8,-1 12,-1 -11,-7 12,-6 14,-5 -1,-3 -3,-6 -2,-9 6,3 11,5 15,-2 1,-2 12,-4 8,-7 -2,-1 -9,-3 -11,-3 -9,-1 -13,-13 -23,-8 1,-10 -5,-6 -10,-12 -5,-5 -12,-11 -14,-17 0,4 1,8 -1,11 -1,2 -3,2 -5,2 1,2 1,4 -1,6 -6,-7 -21,-1 -24,-12 -1,-5 -4,-6 -9,-5 -5,1 -10,-6 -14,-6 3,-13 26,-21 36,-27 -11,-8 -19,-2 -11,-16 2,-3 1,-7 6,-9 4,-2 10,1 14,-2 9,-4 29,6 37,10 2,1 5,2 7,4 4,4 7,3 12,4 5,1 10,8 16,7 -5,-6 -8,-25 1,-29 2,-1 19,-3 17,-6 11,4 21,12 31,18 4,3 22,11 27,10 4,-2 1,-7 6,-6 8,1 15,4 23,4 6,0 11,-2 17,-1 6,1 10,6 16,4 6,-1 12,2 17,3 7,2 14,2 21,3 11,2 28,9 36,17 4,4 5,8 11,9 5,0 8,1 12,4 5,3 13,9 15,15 0,2 -15,6 -19,8 -10,6 -25,8 -36,14 -5,2 -8,4 -9,9 0,5 -5,10 -11,9 -6,-1 -11,0 -16,0 -7,0 -13,-3 -19,-4 -8,-1 -9,9 -11,16 -5,19 -14,11 -25,13 -12,2 -9,-10 -14,-15 -3,-3 -9,4 -12,6 -6,2 -9,-2 -15,-4 -1,2 -1,5 0,8 -5,-1 -9,3 -12,6 -4,5 -12,1 -17,6 -6,7 7,19 -3,24 -5,2 -9,-3 -14,0 -5,3 -12,2 -18,0 -7,-2 -22,-5 -24,6 -8,-10 -16,-5 -20,-10 -1,1 0,-3 -2,-5 -2,0 -5,-1 -7,-2 -2,-2 -1,-4 -3,-6 -1,-1 -17,9 -23,8 -4,-2 -5,-3 -7,-7 -4,-5 -11,-4 -16,-3 0,-1 0,-3 0,-4 -4,2 -8,2 -13,1 -12,-3 -16,3 -20,-1 -5,-4 -4,-27 2,-17 1,-3 2,-5 3,-7m0 0l0 0 0 0z"/>
   </g>
   <g id="om">
    <path id="path4692" class="fil1 str0" d="M1132 1308c4,-3 5,-7 7,-11 2,-1 3,-2 4,-3 2,-1 -1,-7 -1,-9 -3,8 -13,14 -10,23z"/>
    <path id="path4696" class="fil1 str0" d="M1040 1023c1,-3 3,-5 5,-8 3,5 7,0 6,-4 3,2 8,13 0,10 5,4 -1,25 -7,24 -7,-3 5,-20 -4,-22z"/>
    <g>
     <path id="path4786" class="fil1" d="M865 1327c57,-7 94,-16 121,-27 12,-18 -2,11 5,-10 6,-17 11,-35 17,-51 4,-12 13,-26 7,-38 -4,-9 -13,-17 -15,-26 -3,-12 23,-48 13,-55 6,-5 14,1 19,-4 5,-6 -2,-5 -3,-8 -3,-8 -4,-26 2,-33 3,-3 7,3 6,6 -4,9 7,0 9,-1 5,-4 4,-4 7,3 3,11 8,21 15,30 10,15 26,21 42,27 8,2 14,6 22,8 11,2 15,16 21,24 4,7 6,14 11,20 4,7 7,7 13,11 16,8 -5,29 -9,38 -8,17 -28,24 -36,42 -2,4 -5,17 -12,14 -5,-2 -3,-13 -10,-9 -9,4 -11,23 -14,30 -4,10 -2,18 -1,28 2,8 2,14 -7,13 -16,-1 -33,2 -39,18 -2,6 -4,13 -9,18 -6,7 -16,5 -24,5 -10,-1 -14,0 -21,7 -7,7 -3,9 -5,18 -1,6 -8,10 -14,12 -3,1 -6,3 -8,0 -4,-4 -8,-3 -14,-4 -17,-2 -33,13 -50,10 -11,-1 -3,-28 -15,-30 6,-5 -4,-25 -6,-29 -7,-17 -14,-40 -18,-58l0 1zm0 0l0 0 0 0z"/>
     <path id="1" class="fil2 str0" d="M865 1327c57,-7 94,-16 121,-27 12,-18 -2,11 5,-10 6,-17 11,-35 17,-51 4,-12 13,-26 7,-38 -4,-9 -13,-17 -15,-26 -3,-12 23,-48 13,-55 6,-5 14,1 19,-4 5,-6 -2,-5 -3,-8 -3,-8 -4,-26 2,-33 3,-3 7,3 6,6 -4,9 7,0 9,-1 5,-4 4,-4 7,3 3,11 8,21 15,30 10,15 26,21 42,27 8,2 14,6 22,8 11,2 15,16 21,24 4,7 6,14 11,20 4,7 7,7 13,11 16,8 -5,29 -9,38 -8,17 -28,24 -36,42 -2,4 -5,17 -12,14 -5,-2 -3,-13 -10,-9 -9,4 -11,23 -14,30 -4,10 -2,18 -1,28 2,8 2,14 -7,13 -16,-1 -33,2 -39,18 -2,6 -4,13 -9,18 -6,7 -16,5 -24,5 -10,-1 -14,0 -21,7 -7,7 -3,9 -5,18 -1,6 -8,10 -14,12 -3,1 -6,3 -8,0 -4,-4 -8,-3 -14,-4 -17,-2 -33,13 -50,10 -11,-1 -3,-28 -15,-30 6,-5 -4,-25 -6,-29 -7,-17 -14,-40 -18,-58m0 1l0 0 0 0z"/>
    </g>
   </g>
   <g id="sa">
    <path id="path3234" class="fil0 str0" d="M465 1397c0,-4 -1,-8 -4,-11 -1,1 -1,3 -1,4 -5,0 -7,-6 -11,-8 4,8 14,9 16,15z"/>
    <path id="path3380" class="fil0 str0" d="M490 1407c1,-4 -1,-16 -5,-19 -2,-2 -10,-26 -11,-15 2,-19 -11,-26 -20,-40 -4,-6 -9,-14 -10,-20 -1,-8 -5,-11 -9,-18 -2,-4 1,-7 -1,-11 -2,-3 -4,-12 -5,-15 -1,-4 -1,-7 -2,-11 -2,-3 -4,-4 -6,-6 -1,-3 1,-6 -1,-8 -1,-3 -4,-4 -6,-6 -5,-5 -10,-11 -14,-17 -5,-7 -12,-5 -17,-10 -10,-9 -15,-24 -20,-36 -3,-6 -2,-10 -1,-17 0,-7 -4,-14 -4,-21 0,-10 5,-19 5,-29 -1,-4 -3,-8 -5,-12 -1,-2 -7,-12 1,-5 -2,-5 -6,-6 -6,-11 -1,-5 -2,-10 -4,-15 -3,-13 -12,-22 -21,-32 -6,-8 -12,-10 -20,-13 -4,-1 -5,-8 -5,-11 -2,-7 -6,-11 -9,-17 14,-3 -2,-27 -6,-33 -2,-4 -10,-12 -9,-16 2,-8 -8,-14 -11,-22 -8,-23 -23,-44 -32,-67 -3,-7 -6,-18 -13,-21 -4,-1 -18,-5 -19,1 -4,-5 5,-15 7,-20 4,-9 3,-19 5,-29 4,-11 1,-4 4,-11 8,4 33,13 42,12 19,-1 21,-28 39,-28 6,-1 22,3 22,-6 1,-20 9,-13 21,-15 -14,-17 -27,-34 -39,-52 28,-3 47,-7 82,-20 13,4 37,9 51,17 48,30 86,70 126,109 8,8 16,16 24,25 9,10 16,10 29,13 15,3 30,7 45,11 6,1 9,-2 14,0 8,3 17,5 25,7 8,1 8,12 10,18 3,10 17,6 25,8 8,1 9,6 11,13 2,7 15,18 12,26 -1,-1 -1,-3 -2,-4 -4,6 2,6 1,11 0,0 24,5 14,11 4,2 9,21 14,11 -4,9 17,22 22,28 -3,-1 -5,-3 -6,-6 -1,11 5,11 6,20 1,5 0,15 -7,8 0,5 -2,6 3,8 1,0 6,15 6,16 -1,-1 -3,-3 -4,-4 4,7 11,11 13,18 3,8 3,14 7,21 2,6 6,15 12,18 3,1 14,-1 12,5 1,-3 4,-4 6,-2 -4,4 -9,16 4,14 -1,0 5,15 5,16 12,18 28,48 35,52 46,10 67,16 92,24 3,0 6,-2 8,-4 4,14 16,22 17,31 1,8 0,13 -3,20 -10,26 -19,73 -30,77 -70,28 -154,30 -234,34 -11,3 -21,6 -31,10 -15,7 -32,30 -38,44 -3,6 -12,12 -19,12 -8,-1 -8,-14 -14,-17 -7,-3 -12,0 -18,-2 -10,-2 -23,-2 -31,-7 -9,-7 -17,-5 -29,-7 -10,-1 -21,4 -31,3 -12,-2 -13,-11 -20,-10 -9,1 -12,12 -14,19 -1,7 7,12 -1,16 -1,1 -4,11 -15,13 0,-1 1,-1 1,-2z"/>
    <path id="path5480" class="fil0 str0" d="M454 1375c3,2 4,2 2,3 -1,-1 -1,-2 -2,-3z"/>
    <path id="path5482" class="fil0 str0" d="M456 1378c1,2 1,4 0,6 -1,-1 -2,-2 -3,-3 1,-1 2,-2 3,-3z"/>
    <path id="path5488" class="fil0 str0" d="M783 936c2,-3 5,-2 7,0 -2,1 -5,0 -7,0z"/>
   </g>
   <g id="vn">
    <path id="path3474" class="fil0 str0" d="M3014 2013c1,4 3,9 7,11 -3,-3 -5,-7 -7,-11z"/>
    <path id="path3476" class="fil0 str0" d="M3043 1974c1,4 -3,8 1,12 3,-4 2,-8 -1,-12z"/>
    <path id="path3478" class="fil0 str0" d="M3049 1982c0,1 -1,2 0,4 0,-2 0,-3 0,-4z"/>
    <path id="path3480" class="fil0 str0" d="M3149 1895c0,2 1,3 3,4 -1,-2 -2,-3 -3,-4z"/>
    <path id="path3562" class="fil0 str0" d="M2857 1407c6,1 8,-11 12,-13 7,-5 14,6 17,9 5,7 9,3 13,-3 7,-8 9,0 12,5 2,-3 3,-11 8,-5 2,3 5,8 9,11 2,1 5,-15 12,-14 -3,10 18,3 22,0 3,-3 -1,-7 1,-10 2,-4 14,-4 18,-11 5,9 11,16 19,21 7,4 14,-2 18,5 4,7 13,-2 18,5 3,3 5,16 -3,12 -1,11 3,19 5,29 4,-2 14,3 14,7 -1,7 12,7 13,13 1,0 3,-1 4,-1 1,5 5,2 10,1 7,-1 25,8 18,11 -5,3 -10,-6 -15,-3 -5,3 -7,8 -12,8 -7,1 -2,7 -5,10 -3,4 -16,6 -9,0 -3,-1 -9,4 -10,6 -3,-2 -4,-8 -9,-7 2,1 3,3 5,4 -4,4 -1,6 1,10 1,4 -6,3 -8,2 2,4 1,14 -3,16 1,1 1,1 2,0 -1,3 -14,15 -17,11 -6,3 -10,12 -11,18 -2,9 1,16 -4,23 -7,9 3,13 3,21 3,-5 3,4 5,7 3,5 6,9 10,12 4,4 8,7 12,11 5,6 2,11 3,18 -2,-2 -5,-3 -8,-4 9,3 12,15 19,22 5,5 21,16 16,24 6,-2 14,10 17,14 -2,-1 -3,-1 -5,-2 7,5 13,11 16,18 8,-6 18,12 14,16 4,-2 0,-10 6,-6 -11,8 18,32 17,40 4,-7 4,-1 6,2 3,5 -2,3 -2,7 1,7 6,13 8,20 3,9 3,18 6,27 1,4 3,8 3,11 0,2 -1,12 -2,2 -1,6 4,21 -1,11 1,4 2,7 4,9 -7,0 -1,4 -1,9 1,6 2,10 5,15 1,3 0,13 -1,16 -2,-2 -3,-5 -4,-8 -7,3 -2,13 0,18 -2,-1 -4,-3 -7,-4 3,4 4,20 2,25 0,-3 0,-6 -1,-8 2,4 -1,8 -2,11 4,1 4,4 2,7 -1,3 -7,4 -7,6 -3,6 0,7 -8,10 -3,2 -5,3 -8,4 -4,1 -5,6 -8,7 -4,0 -9,2 -13,4 -2,1 -6,9 -7,8 -4,-1 -11,3 -14,4 -4,3 -12,5 -16,8 -2,-6 -9,-6 -9,-13 0,3 -1,5 -2,8 0,-2 -1,-5 -2,-7 1,5 1,5 -2,-1 4,1 -4,-3 -4,-3 1,5 -2,11 -7,9 1,4 7,-2 8,5 1,7 -12,2 -15,2 4,4 12,4 15,11 -5,0 -6,7 -11,3 -3,-3 -5,-11 -9,-12 2,4 16,18 13,21 -9,-5 -13,-15 -20,-21 1,6 27,28 13,33 -9,4 -20,-20 -25,-24 3,7 17,19 13,28 -3,7 -15,7 -21,9 -9,4 -11,11 -17,17 -5,5 -16,12 -21,6 2,-3 5,-4 8,-4 -1,-2 -1,-4 -1,-5 -2,0 -4,1 -5,1 1,-10 0,-19 1,-29 1,-5 2,-10 4,-14 1,-3 9,-15 10,-5 1,-15 -28,-17 -23,-29 -1,2 -4,0 -5,-2 2,-1 7,-3 9,-3 23,0 12,-10 20,-17 6,8 17,1 25,1 3,-1 5,2 6,4 2,5 8,5 12,8 1,-5 -3,-9 2,-9 0,-7 -9,-8 -11,-13 -2,-5 -3,-10 -4,-15 0,-5 5,-5 7,-8 4,-5 15,4 19,5 -2,-4 2,-9 -1,-14 4,0 8,2 11,1 4,-1 10,-5 13,-6 4,-2 5,-5 10,-6 3,-1 8,0 11,-2 8,-6 -1,-26 1,-35 1,-7 5,-12 2,-20 -1,-2 -2,-5 -3,-7 -2,-4 0,-7 -1,-11 -2,-5 -4,-5 -4,-12 0,-9 6,-13 7,-20 1,-2 1,-11 0,-12 -5,-6 1,-5 4,-10 5,-8 -4,-18 -10,-22 -2,-2 -9,-7 -8,-11 1,-5 9,-6 12,-10 -5,-3 -12,-8 -15,-13 -2,-4 -5,-1 -7,-6 -3,-7 -6,-1 -10,-5 -3,-2 -5,-9 -5,-12 -1,-10 -4,-19 -11,-26 -2,-2 -7,-4 -9,-8 -5,-7 -12,-14 -16,-21 -3,-5 -3,-11 -6,-16 -1,-1 -3,-4 -6,-2 -2,-4 -6,-6 -7,-10 -2,-3 -6,-10 -2,-12 4,-4 -13,-9 -15,-10 -11,-4 -18,-19 -29,-23 -3,-1 -11,-7 -4,-9 11,-4 -2,-8 1,-13 1,-3 14,3 16,3 5,2 21,-6 14,-9 2,-2 7,-3 8,-7 0,-4 -5,-9 -9,-9 -3,0 -3,-2 -4,-5 -1,-6 -7,-5 -12,-7 2,-4 8,-3 8,-6 2,-5 -4,-8 -8,-11 -4,-4 -6,-8 -13,-8 -9,1 -8,6 -13,11 -4,-3 -9,-8 -14,-8 -6,0 -15,-10 -17,-15 -2,-4 -4,-15 -2,-20 4,-9 -4,-8 -5,-16 1,4 0,6 -2,8 -5,-2 -5,-11 -9,-15 -5,-5 -14,-14 -16,-22z"/>
    <path id="path5494" class="fil0 str0" d="M3045 1502c0,-2 0,-3 -2,-4 1,1 1,2 2,4z"/>
    <path id="path5496" class="fil0 str0" d="M3048 1502c2,3 3,5 6,7 4,-5 -2,-7 -6,-7z"/>
    <path id="path5498" class="fil0 str0" d="M3070 1484c-2,4 -3,7 -4,11 5,-2 10,-7 4,-11z"/>
    <path id="path5500" class="fil0 str0" d="M3074 1496c-3,2 -4,3 -6,6 3,-1 5,-3 6,-6z"/>
    <path id="path5502" class="fil0 str0" d="M3085 1481c2,1 3,1 4,0 -1,0 -2,0 -4,0z"/>
   </g>
   <g id="in">
    <path id="path5460" class="fil1 str0" d="M2496 1839c-2,2 -2,1 -1,4 0,-1 1,-2 1,-4z"/>
    <path id="path5466" class="fil1 str0" d="M2507 2010c0,1 0,2 0,4 0,-2 0,-3 0,-4z"/>
    <path id="path5450" class="fil1 str0" d="M2471 1901c-1,-1 -1,-3 -2,-5 -4,2 -7,7 -6,12 1,11 11,0 8,-7z"/>
    <path id="path5452" class="fil1 str0" d="M2485 1805c-8,5 -2,25 -3,33 -9,-3 -14,28 -2,29 -5,-5 1,-5 2,-9 0,-5 -2,-11 0,-16 2,-4 6,-7 5,-11 0,-8 3,-2 5,-9 2,-6 -5,-14 -3,-19 3,-4 13,-14 4,-17 4,-2 4,-7 1,-11 -10,6 -5,20 -9,30z"/>
    <path id="path5454" class="fil1 str0" d="M2482 1802c0,-1 -1,-1 -2,-1 1,2 1,3 2,5 0,-2 0,-3 0,-4z"/>
    <path id="path5456" class="fil1 str0" d="M2476 1974c-2,0 -3,1 -3,3 4,2 5,1 3,-3z"/>
    <path id="path5458" class="fil1 str0" d="M2489 1847c1,1 2,2 4,3 -1,-1 -2,-2 -4,-3z"/>
    <path id="path5462" class="fil1 str0" d="M2497 2033c-11,3 9,10 0,0z"/>
    <path id="path5464" class="fil1 str0" d="M2503 2025c-5,-1 -2,6 0,8 -1,-3 -1,-6 0,-8z"/>
    <path id="path5468" class="fil1 str0" d="M2507 2062c-3,1 -4,5 -3,8 3,-2 5,-4 3,-8z"/>
    <path id="path5470" class="fil1 str0" d="M2513 2073c-13,-8 -4,15 -2,20 6,-9 2,-11 2,-20z"/>
    <path id="path5490" class="fil1 str0" d="M1515 1186c0,-9 10,-8 17,-7 7,0 5,-12 5,-16 4,3 18,3 22,4 10,2 17,9 29,8 1,0 1,-6 4,-6 4,1 11,-5 16,-2 5,12 12,9 22,3 -12,-11 -1,-11 -2,-14 -2,-16 -12,-26 -14,-34 -2,-6 3,-15 -8,-15 -13,1 -16,-9 -15,-17 1,-7 5,-18 0,-22 -8,-7 -23,-6 -25,-20 -2,-10 8,-20 14,-26 4,-5 6,-9 10,-15 2,-3 9,-11 15,-9 7,3 5,15 13,17 5,1 9,-3 13,-4 5,-1 11,0 17,0 11,-2 11,-11 19,-17 9,-8 6,-20 19,-26 12,-5 17,-12 22,-24 4,-9 3,-22 15,-24 4,-1 8,-2 11,-5 4,-5 -3,-7 -3,-10 0,-4 11,-14 13,-17 4,-5 14,-7 17,-13 -8,-1 -5,-9 -4,-14 0,-7 -5,-13 -4,-19 1,-10 21,-9 27,-15 11,-10 -16,-14 -20,-17 -5,-2 -3,-9 -8,-13 -3,-2 -7,-3 -11,-5 2,-3 1,-6 -2,-8 -4,-3 -14,-10 -10,-15 3,-4 6,-9 1,-13 -3,-2 -8,-8 -3,-11 2,-2 14,-8 5,-10 -2,0 -16,-2 -11,-7 6,-6 -1,-6 -5,-10 -5,-4 5,-13 9,-15 9,-4 17,1 26,4 10,3 19,7 29,10 8,3 14,-1 22,-3 7,-2 13,-1 20,-2 2,0 15,-11 15,-12 -2,-5 11,-10 14,-12 3,-2 6,-4 10,-5 2,0 2,1 4,3 7,6 7,8 9,12 4,6 3,18 10,24 8,7 24,17 31,24 3,2 -4,4 -6,6 -3,3 -2,3 -1,13 2,8 5,15 10,23 4,6 14,7 17,11 2,3 0,6 1,8 1,3 2,6 4,8 5,10 -4,12 -9,15 -5,3 -10,10 -15,-1 -4,-8 -8,-10 -17,-5 3,3 3,7 4,11 1,4 4,7 7,11 8,9 3,15 8,21 2,4 -4,18 5,17 2,-1 4,-3 7,-4 5,-1 7,5 8,8 2,4 8,13 13,15 6,2 11,-2 15,4 3,4 6,4 9,6 3,3 3,6 2,8 -2,4 5,5 8,7 11,4 19,8 25,17 -11,0 -14,19 -22,24 -1,0 -3,5 -4,7 -4,6 2,6 1,12 -2,5 -11,11 -7,17 4,4 16,17 17,9 6,5 15,10 20,14 9,7 11,12 18,17 2,2 15,13 18,12 8,-2 13,6 19,10 2,1 12,3 13,5 4,6 5,8 13,11 5,2 9,6 14,3 7,-4 12,1 18,5 -3,-12 26,4 28,4 8,4 4,15 11,17 6,3 13,6 16,12 3,5 11,0 15,0 9,0 3,14 16,10 4,-1 19,7 22,9 9,7 11,2 20,0 0,6 7,11 14,9 2,-1 14,2 17,2 7,1 8,-1 10,-7 3,-12 -3,-15 -6,-25 -2,-6 1,-14 2,-19 2,-7 1,-13 1,-20 7,0 16,-5 23,-2 13,6 -1,22 4,30 1,1 6,5 4,7 -3,3 -5,2 -3,8 5,11 13,12 24,14 7,2 10,9 18,9 3,0 7,0 10,-1 2,-2 9,-7 13,-4 9,8 21,7 32,8 3,0 9,-4 11,-2 2,4 13,2 17,2 11,1 -1,-7 2,-15 5,-17 -15,-9 -16,-18 -1,-5 -4,-13 3,-10 6,2 13,1 18,0 8,-1 14,3 17,-11 2,-6 17,-10 19,-18 2,-13 17,-4 25,-10 7,-5 11,-12 18,-16 3,-2 7,-4 9,-5 3,-1 13,9 16,10 -3,-3 -2,-3 3,0 4,2 7,6 12,6 4,1 4,-5 6,-7 3,-5 13,-8 18,-9 2,0 12,11 13,13 -10,6 -8,6 -6,9 3,4 10,-2 12,-2 -2,6 8,11 6,15 -4,6 -7,8 -10,14 -1,5 8,0 10,0 7,-1 13,9 21,8 6,-1 10,7 9,12 0,2 3,4 2,6 -1,3 -7,7 -10,9 -14,12 4,20 5,31 -9,3 -11,-12 -17,-12 -19,2 -23,0 -28,6 -4,5 -6,9 -11,10 -4,1 -3,3 -5,3 -2,1 0,3 -4,5 -2,0 -8,-3 -12,4 -3,4 -2,9 -1,14 0,3 3,6 3,9 1,4 -2,8 -3,12 -2,11 -18,15 -15,25 1,3 5,8 4,12 -3,18 -15,32 -21,51 -4,-4 -13,-8 -18,-10 -2,0 -5,1 -7,1 -3,-1 -3,-4 -7,-3 3,11 3,20 3,32 -1,4 -2,20 -10,12 0,11 -2,18 1,29 1,3 3,16 -4,10 -1,19 -8,10 -14,1 1,3 -2,6 -4,8 -3,-27 -9,-52 -14,-81 0,-7 -9,3 -13,-1 2,3 0,7 -3,11 -3,4 -1,9 -1,14 0,5 -4,10 -9,5 -4,-4 -5,-10 -8,-14 0,3 -1,6 -2,8 -2,-8 -7,-16 -8,-25 0,-8 10,-15 8,-22 4,1 11,3 11,-3 2,4 7,-2 10,2 2,-10 18,-18 13,-31 2,0 11,2 7,-4 -5,-6 -13,-11 -21,-12 -7,-1 -11,-2 -20,-3 -9,0 -17,0 -26,-2 -13,-2 -40,-3 -36,-20 2,-7 1,-31 -11,-32 2,4 0,7 -1,10 -5,-4 -13,-6 -16,-12 -3,-4 -3,-12 -10,-12 2,3 4,5 4,9 -3,-2 -7,-2 -11,-5 -3,-2 -3,-6 -5,-8 -2,-3 -7,-5 -9,-7l-2 5c2,0 7,1 8,6 -13,3 -23,19 -9,27 6,3 7,9 12,13 3,3 10,-1 10,5 0,7 11,6 5,13 -3,-2 -8,-2 -12,-2 -5,0 -6,0 -7,4 -1,5 -7,14 -10,5 -1,7 -11,10 0,20 5,5 14,6 18,11 9,9 4,12 5,16 1,5 -11,7 -5,15 5,6 5,5 7,8 1,2 -2,6 -1,10 0,2 5,2 6,2 4,2 1,8 1,11 0,5 1,8 1,13 0,7 2,11 3,17 2,7 4,15 0,21 -2,-1 -3,-2 -5,-3 1,3 9,14 6,16 -4,2 -8,-3 -8,-6 -1,4 -4,7 -6,1 -2,-6 2,-12 2,-19 -3,2 0,6 -4,9 1,-4 -1,-8 1,-12 -8,5 -3,23 -5,31 -1,-6 2,-13 -3,-18 0,1 0,15 -2,13 -1,-1 -1,-2 -2,-3 -4,-7 -2,9 -4,-3 1,3 1,6 -1,8 -4,-5 -3,-15 -3,-22 0,-10 -8,-9 -10,-17 1,8 14,8 7,17 -9,11 -16,15 -29,18 -8,1 -18,3 -20,11 -2,6 1,24 5,29 -3,2 -7,3 -9,7 -2,4 3,5 -4,10 -8,5 -12,15 -20,3 1,4 6,7 9,9 -11,5 -24,9 -37,9 5,-2 7,-11 0,-10 -6,2 -13,10 -12,17 1,-2 8,-10 10,-5 -4,0 -11,10 -15,13 -10,7 -15,17 -22,26 -7,9 -15,19 -27,22 -10,3 -12,16 -22,19 6,4 -26,15 -30,18 -3,2 -7,6 -9,10 -4,6 5,9 1,16 -8,14 -25,10 -38,9 -5,0 -6,4 -7,8 -2,5 -8,13 -9,17 -3,-2 -3,-6 -4,-10 1,4 -2,8 -4,12 4,-13 -15,-8 -19,-2 -6,9 -14,22 -12,32 2,9 5,19 4,27 -2,15 0,27 2,42 -1,-3 -5,-15 -6,-5 -2,-8 -3,1 -1,3 3,3 6,3 8,7 4,7 -2,24 -4,31 -3,13 -12,22 -17,33 -4,10 -1,24 -9,31 1,-1 2,-2 4,-3 4,6 3,13 2,19 -1,10 0,21 -2,31 -2,-1 -5,-2 -8,-2 10,4 0,1 -2,1 -3,-2 -9,-5 -12,0 -1,2 -3,5 -2,8 1,4 -5,8 -8,11 -4,5 -13,18 -3,24 3,1 6,1 9,1 2,-1 5,6 6,8 -9,-12 -27,-8 -39,-3 -16,5 -11,20 -19,30 -4,5 -12,8 -18,10 -10,3 -15,-1 -21,-9 -3,-3 -25,-32 -16,-33 -8,2 -9,-13 -11,-19 -2,-9 -5,-19 -1,-28 1,3 2,7 1,11 2,-9 -1,9 4,10 -1,-5 1,-10 -1,-16 -1,-4 -5,-7 -5,-12 -1,10 -3,0 -2,-2 1,-5 -2,-7 -4,-12 -2,-10 -5,-20 -7,-31 -1,-3 -19,-42 -18,-44 -12,-19 -19,-41 -21,-63 -1,-8 -1,-15 -3,-22 -1,-5 -3,-10 -4,-15 -1,-4 -6,-14 0,-11 -6,-3 -4,-12 -7,-18 -2,-3 -13,-11 -3,-12 -6,2 -8,-5 -9,-10 -1,-3 -2,-7 -3,-10 -1,-4 -6,-6 0,-6 -3,-1 -5,-6 -5,-9 1,-4 -3,-5 -5,-9 -5,-10 -8,-21 -10,-32 -2,-7 -3,-15 -2,-23 1,-8 -2,-16 -3,-24 0,-7 -3,-14 -5,-21 -1,-5 -7,-21 0,-17 -1,-2 -10,-17 -1,-11 -1,-6 -8,-10 -4,-16 1,1 2,2 3,3 1,-3 0,-6 -2,-8 5,-2 3,-7 3,-11 -1,3 -3,6 -5,8 -4,-7 -1,-22 7,-11 -1,-4 -14,-8 -9,-12 2,-2 -4,-10 -4,-13 -2,-6 -1,-12 1,-19 3,-9 10,-19 8,-30 -1,-1 -1,-19 -7,-13 2,-5 1,-5 -3,-1 5,-5 -3,-8 -1,-12 1,-2 2,-5 3,-8 1,-4 15,-5 18,-9 -11,6 -33,-2 -16,-12 -6,2 -11,-3 -7,-8 4,-5 8,1 12,-4 -5,1 -16,-2 -18,-8 -1,3 -6,3 -6,3 0,2 3,3 3,7 -1,5 -4,6 -9,7 1,2 2,3 3,4 -3,-1 -6,1 -7,4 10,4 14,12 6,21 -3,3 -2,8 -7,9 -6,2 -12,5 -18,8 -10,5 -22,10 -33,5 -11,-5 -24,-17 -29,-28 -9,-16 -23,-28 -34,-42 -2,-4 -10,-17 1,-17 2,0 2,5 4,7 4,3 11,2 13,-4 3,7 23,-2 27,-5 4,-3 4,-8 6,-12 3,-3 10,-5 5,-11 -3,3 -1,9 -6,8 -6,-1 -10,0 -16,1 -5,1 -7,5 -13,4 -6,-1 -12,-5 -17,-8 -6,-4 -12,-7 -17,-11 -3,-4 -3,-11 -7,-14 -16,-8 5,-18 10,-21 -9,-2 -16,14 -25,9 2,-3 3,-5 2,-8z"/>
   </g>
   <g id="cn">
    <g id="cnx">
     <path id="path2726" class="fil0 str0" d="M3470 692c1,-3 -1,-4 -4,-4 1,2 2,3 4,4z"/>
     <path id="path2730" class="fil0 str0" d="M3515 702c0,-1 -2,-2 -3,-2 1,1 2,2 3,2z"/>
     <path id="path2740" class="fil0 str0" d="M3554 1053c7,4 21,24 30,16 -4,-5 -23,-22 -30,-16z"/>
     <path id="path2744" class="fil0 str0" d="M3582 1228c1,0 1,1 1,2 7,-1 2,-10 -1,-2z"/>
     <path id="path2748" class="fil0 str0" d="M3603 1142c4,0 7,3 12,1 -2,-4 -10,-9 -14,-5 0,1 1,2 2,4z"/>
     <path id="path2750" class="fil0 str0" d="M3603 1128c1,2 3,3 5,3 0,-4 -2,-5 -5,-3z"/>
     <path id="path2752" class="fil0 str0" d="M3610 1157c1,-3 -1,-3 -4,-1 1,0 2,1 4,1z"/>
     <path id="path2734" class="fil0 str0" d="M3455 1417c1,1 1,2 2,3 6,-4 -1,-8 -2,-3z"/>
     <path id="path2742" class="fil0 str0" d="M3540 1344c3,8 6,-2 5,-5 -1,0 -3,0 -4,1 1,1 2,2 3,4 -1,0 -2,0 -4,0z"/>
     <path id="path2766" class="fil0 str0" d="M3519 1314c3,2 5,3 8,5 -4,1 -7,-1 -8,-5z"/>
     <path id="path2736" class="fil0 str0" d="M3482 1381c-1,3 0,5 3,5 1,-2 0,-5 -3,-5z"/>
     <path id="path2710" class="fil0 str0" d="M3120 1581c-2,3 0,16 0,20 1,5 -1,14 3,19 5,6 14,6 20,10 5,5 14,6 21,7 -2,-8 9,-11 11,-6 -2,-3 12,-12 15,-14 3,-2 9,-17 4,-20 5,-2 12,-14 12,-20 9,9 5,-11 4,-15 -2,-6 -19,-15 -13,0 -2,-3 -13,-9 -8,-1 -2,-10 -14,-5 -17,-1 -3,-7 -14,-7 -19,-4 1,2 2,3 2,5 -4,1 -7,-6 -11,-5 -5,1 -3,9 1,10 -10,1 -17,10 -25,15z"/>
     <path id="path2712" class="fil0 str0" d="M3180 1512c4,-1 8,-2 11,3 4,-8 -8,-9 -11,-3z"/>
     <path id="path2714" class="fil0 str0" d="M3191 1502c-3,2 -3,3 2,4 -1,-1 -1,-2 -2,-4z"/>
     <path id="path2716" class="fil0 str0" d="M3241 1492c3,-1 4,-3 4,-5 -3,0 -3,2 -4,5z"/>
     <path id="path2718" class="fil0 str0" d="M3274 1488c-2,1 -4,2 -5,4 3,1 5,0 5,-4z"/>
     <path id="path2720" class="fil0 str0" d="M3280 1495c1,-3 0,-5 -1,-8 0,3 0,6 1,8z"/>
     <path id="path2722" class="fil0 str0" d="M3302 1436c0,1 5,9 8,8 -2,-4 -4,-7 -8,-8z"/>
     <path id="path2724" class="fil0 str0" d="M3307 1444c0,3 0,4 3,5 -1,-2 -2,-3 -3,-5z"/>
     <path id="path2708" class="fil0 str0" d="M1683 478c5,1 9,-2 9,-8 -1,-8 -5,-7 -2,-15 3,-6 8,-3 14,-4 6,-2 9,-10 16,-9 -1,-3 -1,-6 0,-8 4,1 11,6 15,3 3,-2 7,-6 11,-6 4,0 4,11 7,14 4,4 14,0 20,1 10,2 13,-13 15,-21 2,-6 5,-8 12,-6 8,2 16,3 25,3 4,-1 10,1 14,-2 4,-3 5,-10 9,-14 11,-10 29,-9 41,-17 5,-3 7,-5 13,-4 7,1 6,-2 4,-8 -2,-7 -4,-13 -6,-19 -4,-9 6,-10 12,-11 -2,-2 -5,-4 -7,-6 2,-3 7,-8 11,-4 4,-6 -4,-8 -4,-14 1,-8 -6,-14 -10,-20 -5,-8 -10,-17 -12,-26 -2,-7 3,-16 -2,-20 -5,-2 -25,-2 -18,-10 3,-4 15,-4 21,-5 9,-2 19,-2 29,-4 10,-2 11,3 18,7 6,3 12,-3 18,2 7,6 8,-2 7,-7 -2,-8 -11,-5 -14,-11 -3,-5 1,-13 2,-18 2,-8 1,-17 2,-24 1,-8 5,-15 4,-23 0,-9 4,-11 12,-6 6,4 11,7 18,10 9,3 18,1 27,3 7,1 9,11 16,6 6,-3 13,-3 18,-7 9,-7 -10,-31 -11,-39 -1,-5 -1,-18 4,-20 5,-3 11,1 16,-1 13,-4 13,-9 10,-21 -1,-8 7,-7 12,-6 5,0 13,5 24,1 2,3 6,9 3,9 -6,1 5,8 7,9 8,5 0,7 5,10 7,5 17,6 22,13 5,9 21,20 31,18 11,-1 19,16 24,8 4,2 14,10 18,15 6,7 8,15 14,22 5,5 12,11 18,19 7,12 7,7 7,13 -1,19 8,21 2,27 -6,7 -6,15 -1,22 4,5 10,11 16,14 9,3 17,5 26,8 8,2 17,4 26,6 8,2 16,1 24,3 16,2 29,12 40,19 4,3 8,5 9,6 10,8 15,10 22,14 6,3 11,3 17,4 8,2 4,8 7,12 7,7 12,8 16,17 4,7 9,13 13,20 5,7 13,12 19,18 5,5 4,10 10,12 8,2 17,0 25,0 13,1 37,12 57,15 9,1 18,5 28,6 9,0 16,-5 26,-3 10,2 20,6 30,9 8,2 17,-1 27,6 7,5 11,12 18,16 10,5 23,9 34,13 16,6 30,14 52,15 7,0 8,3 13,7 6,5 23,6 19,6 -7,0 38,-19 47,-21 7,-1 19,-4 28,-4 11,1 21,-1 34,1 16,2 36,7 48,1 7,-3 18,-4 24,-10 5,-5 7,-13 12,-19 3,-5 8,-3 15,-9 2,-3 5,-4 9,-6 1,-2 3,-1 4,-2 4,-11 -22,-26 -28,-34 -4,-6 2,-8 0,-14 -3,-9 3,-17 11,-18 11,-2 18,9 48,20 5,1 15,5 16,2 3,-7 12,-6 16,-11 3,-5 3,-10 7,-14 4,-4 13,1 17,2 12,3 26,-3 34,-13 4,-4 -5,-9 0,-17 4,-7 3,-13 19,-9 6,1 9,3 11,-5 1,-7 9,-1 12,0 3,0 12,-5 16,-6 3,0 6,1 10,1 6,4 11,-1 10,0 2,0 8,4 11,5 5,2 10,4 16,4 19,0 3,-18 -4,-23 -19,-17 -38,-31 -58,-44 -9,-6 -24,-11 -31,0 -10,14 -20,-5 -32,-4 -5,0 -13,-2 -17,-1 -5,0 -7,7 -14,2 -4,-3 -19,-13 -14,-20 2,-3 6,-3 3,-8 -2,-6 -2,-10 -1,-15 2,-17 2,-34 3,-51 12,7 26,9 37,15 13,8 16,-4 25,-11 7,-4 21,-2 24,-8 1,-5 -8,-7 -11,-11 -2,-3 0,-6 0,-9 0,-4 3,-6 2,-11 -1,-3 -1,-5 0,-7 2,-5 0,-8 1,-13 1,-10 -3,-20 7,-26 12,-7 -2,-18 -5,-25 -3,-7 -10,-13 -18,-11 -7,2 -10,-4 -13,-9 11,-2 10,-20 23,-21 15,-1 31,-5 46,-2 16,2 29,-4 44,4 5,3 16,6 21,11 6,6 17,7 24,12 -1,-11 33,5 31,9 -1,4 14,9 18,12 3,2 0,4 3,6 4,3 7,5 11,9 7,7 18,12 21,20 2,6 7,12 12,16 5,4 7,10 14,13 8,4 10,14 16,20 6,6 13,11 19,17 5,6 6,13 11,18 5,6 10,5 12,14 3,14 23,28 37,27 6,0 14,0 19,4 8,6 17,8 25,12 -5,-13 10,5 13,5 6,1 13,12 19,16 8,6 17,3 25,7 2,2 0,8 2,11 2,3 6,5 9,7 8,6 6,11 9,20 1,6 18,18 23,21 3,1 7,-2 10,-1 6,1 10,4 15,4 7,0 28,4 26,-4 -1,-8 11,-12 19,-10 0,0 6,3 7,1 2,-4 1,-5 6,-6 5,0 14,-6 19,-4 3,1 12,5 14,7 -1,5 0,10 3,14 5,6 15,14 9,22 -2,2 -6,4 -7,5 -5,4 1,8 2,11 1,3 0,6 0,9 1,5 5,10 4,16 -1,6 12,19 0,21 6,6 0,7 0,13 0,4 5,8 3,12 -2,5 -10,0 -6,12 2,4 4,8 4,11 0,6 -29,-7 -34,-9 -2,0 -14,-8 -15,-6 -3,4 -3,11 -8,13 -3,2 -9,2 -11,4 -3,2 5,9 6,11 10,13 17,27 22,42 5,12 16,22 13,35 -1,7 2,11 -5,9 -6,-2 -11,-2 -16,4 12,4 15,15 19,21 5,8 -22,-16 -26,-25 -4,-7 -10,-10 -18,-10 1,5 7,20 3,24 -2,3 -9,-1 -13,1 -5,4 3,13 -8,15 -10,1 -20,-2 -30,-1 4,7 22,17 19,26 -2,5 -24,-1 -29,-2 -4,-1 -9,-3 -13,-6 -5,-3 -8,-12 -15,-12 -3,0 -4,4 -8,3 -1,9 -1,14 -5,22 -2,3 -3,9 -7,11 -1,1 -10,1 -9,4 0,4 -3,3 -6,5 -2,2 -4,3 -7,3 -2,1 -5,6 -6,6 -9,2 -17,10 -18,19 -1,11 -18,10 -23,3 0,6 -8,4 -11,3 1,5 -3,5 -6,5 -7,1 -12,5 -18,8 -6,4 -9,5 -11,12 -1,5 -7,4 -6,9 -2,-2 -5,-3 -8,-3 4,6 -16,17 -18,3 -1,-7 12,-5 14,-7 3,-2 -1,-5 0,-8 0,-4 5,-5 7,-7 -12,4 -17,-5 -28,-8 3,-2 6,-4 9,-4 -5,-11 -1,-9 7,-15 4,-3 7,-13 8,-18 3,-17 -23,-16 -23,-31 0,10 -10,4 -15,2 -6,-3 -21,3 -11,8 -8,0 -14,11 -14,19 0,5 -18,10 -22,12 -4,2 -8,4 -11,8 -4,6 2,11 0,16 -6,12 -16,7 -26,11 -7,4 -13,-8 -20,-7 -11,1 -8,18 -6,25 3,12 15,17 24,25 2,2 9,4 12,3 6,-2 6,6 11,8 1,-3 2,-6 1,-8 7,1 17,10 20,17 4,10 -4,18 5,27 6,6 15,9 23,8 6,0 14,-2 8,-9 3,-2 20,-12 9,-14 6,2 12,-3 18,-4 6,-1 14,6 17,10 2,4 5,4 9,3 2,0 5,5 6,6 4,6 14,-1 19,5 1,-1 1,-3 2,-4 7,6 19,3 26,10 -1,1 -3,1 -4,2 7,8 -6,8 2,15 3,2 2,6 -3,7 -7,2 -7,-5 -9,-9 -1,2 -3,4 -4,5 0,-6 -4,-4 -8,-2 -2,2 -16,10 -8,2 -4,3 -13,9 -18,10 -3,0 -11,-6 -10,1 6,-4 10,4 6,9 -1,-4 -5,-5 -7,-1 -1,4 3,7 2,11 -1,2 -7,4 -8,3 -6,-2 -3,-8 -7,-10 4,7 -2,0 -6,1 -1,5 5,12 10,13 -11,0 -7,20 -20,15 0,5 -3,16 -6,20 -5,7 -2,12 -1,20 6,-4 14,4 18,8 8,7 18,11 27,16 7,4 9,16 12,23 6,10 11,22 19,31 5,6 10,15 10,23 -1,10 14,13 20,17 6,3 3,6 5,11 2,4 6,5 9,7 6,4 18,11 13,20 -8,-4 -16,-13 -25,-11 -13,2 -11,-7 -21,-12 -10,-5 -16,8 -25,2 -4,-3 -6,-7 -8,-12 -3,-5 -8,-5 -12,-9 2,2 3,6 1,8 2,-2 5,-2 7,1 -1,-2 -3,-3 -4,-4 5,-1 13,12 4,7 6,5 12,15 21,12 4,-1 4,-5 8,-4 4,1 9,3 11,6 1,2 -1,5 2,6 4,3 8,4 13,6 9,5 16,14 24,20 5,4 15,15 14,22 -1,3 -7,1 -8,1 -7,0 -11,4 -16,7 -4,2 -8,3 -9,7 -1,2 -1,7 -4,6 -5,0 -7,-5 -12,-3 -5,1 -9,5 -13,7 3,-1 13,-7 16,-5 4,4 3,14 11,14 -2,-1 -3,-2 -5,-3 9,3 16,-8 24,-4 6,2 9,8 12,12 5,6 15,8 22,10 -5,2 -8,5 -11,8 -1,2 -3,4 -4,5 -3,2 -6,1 -8,3 0,1 1,2 2,4 3,-3 8,-7 12,-3 -2,-3 -1,-9 3,-6 5,3 0,7 2,11 0,0 3,14 -2,10 -2,-2 -1,-7 -4,-9 1,3 1,5 1,8 -4,0 -6,-2 -6,-5 1,7 -1,2 -2,0 -1,3 -3,5 -5,7 5,0 12,6 12,11 -2,-3 -4,-3 -6,0 4,0 8,6 4,8 -7,3 -14,-4 -18,-7 2,2 3,7 6,8 4,3 8,-1 10,5 1,3 7,10 3,13 -3,3 -7,2 -6,8 -5,-3 -5,-10 -9,-12 -2,2 -2,2 -5,3 7,2 -6,23 -17,7 1,6 13,6 11,12 -2,6 -9,15 -2,19 -4,2 -5,4 -5,8 1,8 -5,-1 -3,5 -3,-3 -5,-6 -7,-8 -1,3 12,14 1,10 1,5 -3,8 -7,9 4,7 6,19 -7,14 4,-1 7,-5 5,-9 -2,1 -3,2 -4,4 -3,-2 -4,-5 -5,-8 -2,3 -5,4 -8,2 2,3 2,5 2,8 6,-2 12,10 3,8 0,5 6,8 8,2 4,6 -1,5 -5,8 -4,3 -6,7 -8,11 -4,-4 -10,-7 -15,-9 4,3 6,10 12,10 6,0 8,-6 12,2 -4,1 -3,7 -5,11 -3,7 8,8 5,15 -1,-5 -2,-5 -5,-1 -2,-4 -5,-7 -8,-9 -1,3 -3,6 -6,7 2,2 9,4 7,8 -2,7 -6,-4 -7,5 -1,-4 -4,-11 -8,-6 5,3 -1,10 5,11 -2,4 -11,9 -10,2 -5,3 -4,4 -1,7 4,3 0,9 -3,12 -2,-3 -4,-5 -6,-8 -1,5 -8,7 -10,1 -4,4 -11,0 -7,7 -3,-1 -6,-2 -9,-1 3,3 6,4 10,3 -1,3 0,5 3,6 -1,2 -4,2 -6,4 -3,2 -2,7 -7,10 2,-4 1,-5 -3,-5 1,4 -2,8 -2,12 0,-8 -8,-1 -12,-1 -1,1 -6,14 -10,9 -3,-4 -5,-6 -7,0 -1,8 -5,9 -12,7 4,2 10,3 10,9 -4,-7 -5,2 -8,-2 -2,5 0,11 -6,12 -4,1 -12,2 -15,-1 5,7 -18,7 -12,-2 -3,4 -8,1 -11,-1 0,4 8,9 6,13 -2,2 -5,-1 -6,-2 -4,-3 -8,-3 -7,-8 -3,2 -12,7 -15,4 6,3 1,8 -3,7 -4,-2 -3,-8 0,-10 -4,-1 -9,1 -12,4 5,2 -1,6 5,9 -1,0 -3,1 -4,1 -2,-8 -21,-10 -26,-3 1,-12 -13,-16 -10,-28 -2,8 -1,3 -4,0 3,-4 7,-4 12,-3 -6,-5 -12,3 -17,0 8,4 -2,10 -7,7 2,1 9,5 10,8 -1,0 -2,0 -3,-1 4,4 14,21 8,27 -6,7 -14,-15 -16,-19 -1,7 6,14 9,20 -3,0 -6,2 -6,5 -3,-2 -5,-4 -4,-8 -8,3 -1,11 -7,15 -4,-7 -8,-2 -13,2 -2,3 -10,-5 -5,-8 -3,1 -5,-1 -4,-5 -1,5 1,10 -1,14 -2,5 -15,-7 -18,-8 6,10 -3,5 -8,4 8,5 -6,16 -10,8 -2,2 -4,5 -7,6 4,-6 -4,-3 -8,-3 -5,1 -12,2 -15,6 1,-2 2,-4 4,-6 -4,2 -7,5 -5,10 -8,1 -5,-4 -9,-9 -3,4 3,8 -2,11 -3,3 -9,5 -7,10 1,3 5,4 8,5 3,2 1,10 -1,1 0,6 9,11 7,18 -2,11 -16,3 -23,6 1,-4 -3,-11 4,-7 -1,-6 -13,-6 -7,-15 -6,0 -1,-7 -6,-8 -3,0 -2,-11 0,-13 4,-3 0,-7 5,-9 9,-4 -2,-8 -5,-11 1,1 1,3 2,4 -6,1 -8,-8 -10,-12 -3,3 -2,6 1,8 -2,2 -10,8 -13,2 -6,10 -5,-6 -7,-8 -2,-3 -13,1 -6,-7 -1,0 -3,-1 -4,-1 -1,2 0,5 1,8 -5,-2 -6,-11 -11,-10 3,-3 2,-5 -1,-7 -1,3 -3,6 -3,1 -2,5 7,10 3,15 -2,3 -7,-4 -9,-4 1,3 -1,6 -4,7 0,-3 -8,-6 -12,-8 -10,-4 -16,5 -17,-2 -1,0 -3,1 -4,1 -3,-6 -9,-5 -12,-9 -2,-2 -1,-3 -2,-6 -1,-2 -7,-7 -13,-5 -2,-10 -6,-18 -5,-29 8,4 7,-19 -7,-14 -6,2 -7,-3 -11,-5 -5,-3 -8,1 -14,-2 -11,-6 -15,-12 -20,-22 -4,6 -11,6 -17,10 -3,2 2,8 -2,11 -4,3 -25,10 -22,0 -7,0 -10,15 -12,14 -4,-3 -6,-7 -9,-10 -5,-7 -5,0 -8,4 -6,-9 -7,-11 -14,-1 -6,9 -13,-2 -17,-7 -10,-10 -13,2 -19,9 -3,4 -5,-1 -8,-1 -2,0 -5,0 -7,0 -3,0 -1,-4 -4,-4 -10,-1 -7,19 -5,23 2,4 5,9 6,14 1,1 2,3 3,5 0,3 -3,5 -3,8 0,2 5,9 2,12 -4,3 -8,-6 -13,-5 -7,1 -8,2 -10,-6 -2,-7 -5,-13 -5,-20 -7,4 -19,16 -27,9 -4,-3 -6,3 -9,2 -3,-1 -4,-9 -2,-11 -13,-2 -2,-14 -8,-18 -8,-5 -17,-6 -26,-5 -10,0 0,-14 1,-18 2,-5 -3,-21 7,-20 -2,-8 -7,-10 -14,-10 -11,-2 -9,-10 -12,-17 -1,-1 -4,-5 -3,-6 4,-5 -2,-9 -4,-13 -3,-7 6,-8 6,-15 -10,6 -21,-4 -31,0 -2,1 -17,10 -19,8 -4,-5 1,-8 3,-11 2,-4 0,-10 -1,-13 -3,-6 -5,-5 -5,-12 -1,-5 2,-9 8,-9 -4,-7 1,-12 1,-19 8,9 11,-11 12,-14 13,2 4,-4 14,-10 1,-1 5,3 6,0 1,-4 -4,-8 -5,-12 7,4 5,-11 5,-15 1,-8 0,-18 -1,-27 -2,-6 -1,-13 -4,-19 -2,-5 -5,-10 -12,-14 2,3 0,5 -3,6 -3,-6 -7,-12 -8,-18 -1,-5 0,-10 -4,-14 -6,-7 -17,-11 -22,-18 -1,4 -5,11 -5,13 0,1 -2,2 -3,3 -1,0 1,-2 -3,-6 -4,-5 -7,-1 -11,-3 -4,-3 -9,-7 -14,-8 -4,0 -7,5 -11,3 -3,-2 0,-7 1,-8 2,-3 6,-6 7,-9 2,-5 -7,-9 -5,-15 -3,1 -7,5 -11,4 -8,-3 2,-10 5,-11 -3,-4 -7,-8 -10,-12 -4,-3 -16,4 -19,6 -4,2 -3,7 -6,9 -3,1 -8,-2 -10,-3 -1,0 -11,-9 -7,-2 -4,-3 -9,-8 -12,-9 -4,-2 -8,1 -13,3 -6,3 -10,10 -15,14 -7,6 -12,5 -20,6 -9,0 -6,6 -11,11 -4,5 -12,6 -15,12 -3,7 -3,13 -14,12 -6,-1 -12,3 -18,1 -3,0 -7,0 -8,-1 -1,-1 0,-3 0,-6 0,-5 -11,-9 -15,-9 -7,-1 -5,7 -14,0 -11,-2 -17,-3 -21,-5 -5,-4 1,-8 -5,-10 -7,-4 -14,-3 -21,0 -8,4 -13,15 -18,22 -3,5 -11,10 -12,16 -13,-12 -1,-20 -3,-28 -3,-14 -19,-5 -29,-6 0,2 1,3 1,4 -9,-3 -21,-1 -30,-3 -9,-1 -13,-5 -21,-9 -2,-2 -6,-5 -10,-4 -3,1 -1,5 -4,6 -5,0 -13,-8 -13,-13 -1,1 -3,17 -6,10 -4,-7 -12,-12 -13,-20 -2,6 -23,1 -24,-5 0,-3 3,-7 1,-10 -2,-3 -10,2 -14,-1 -6,-5 -20,-12 -22,-20 -2,-10 -11,-22 -22,-13 -4,3 -14,-14 -16,-16 -4,-7 -15,-10 -22,-15 -11,-9 -21,-18 -30,-29 -4,-4 -9,-4 -14,-6 -5,-2 -5,4 -11,1 1,15 -7,15 -14,6 -7,-9 -15,-14 -25,-18 -2,-1 -7,-2 -8,-4 -2,-3 3,-7 -2,-10 -4,-2 -6,-2 -9,-6 -5,-6 -9,-2 -15,-5 -9,-4 -11,-14 -17,-21 -5,-7 -14,10 -16,-3 -1,-4 1,-8 -1,-13 -2,-4 -3,-8 -3,-12 0,-5 -5,-9 -8,-13 -5,-5 -3,-12 -7,-17 12,-7 13,-1 18,7 3,4 7,5 10,1 3,-4 8,-3 12,-7 5,-5 0,-11 -3,-15 -2,-3 0,-11 -3,-12 -11,-5 -11,-4 -19,-14 -8,-12 -7,-30 -7,-33 0,-1 14,-3 3,-8 -9,-4 -16,-13 -24,-19 -12,-9 -6,-26 -25,-41 -12,-1 -49,-8 -48,-25 -3,0 -9,5 -13,1 -3,-3 -10,-9 -11,-12 -1,-4 0,-10 -1,-14 -1,-5 -3,-10 -6,-14 -5,-6 -15,-4 -18,-10 -3,-6 -14,-14 -20,-6 -3,-10 -14,-5 -17,-12 -4,-9 13,-3 15,-4 10,0 7,-10 2,-14 -4,-3 -2,-5 -2,-9 1,-2 -2,-9 -3,-11 -1,-4 -5,-5 -5,-8 -1,-4 0,-9 0,-13 -1,-8 -13,-11 -19,-14 -9,-2 -16,8 -21,-1 -2,-3 -10,-16 -1,-15 -2,-4 -6,-7 -9,-11 -3,-4 -1,-9 -1,-13z"/>
    </g>
    <g id="cn_hk">
     <g id="hk-">
      <path id="path2764" class="fil0 str0" d="M3327 1458c4,-1 8,-3 11,2 -1,1 -3,1 -4,2 2,-1 5,-2 6,0 6,5 -6,0 -2,7 -4,-1 -21,-7 -11,-11z"/>
      <path id="path2762" class="fil0 str0" d="M3320 1471c0,-4 5,-4 8,-6 0,5 -4,7 -8,6z"/>
      <path id="path2760" class="fil0 str0" d="M3333 1469c0,2 1,3 3,4 0,-2 -1,-3 -3,-4z"/>
     </g>
     <path id="hk_" class="fil3 str1" d="M3362 1472c1,-12 -8,-23 -20,-25 -13,-1 -24,8 -25,20 -2,13 7,24 20,25 12,2 23,-7 25,-20z"/>
    </g>
    <g id="cn_mo">
     <path id="mo-" class="fil0 str0" d="M3308 1470c1,-1 1,2 1,-1 1,1 0,3 0,5 0,-2 -1,-3 -1,-4z"/>
     <path id="mo_" class="fil3 str1" d="M3317 1481c1,-12 -8,-23 -20,-25 -12,-1 -24,7 -25,20 -1,12 7,23 20,25 12,1 23,-7 25,-20z"/>
    </g>
   </g>
   <g id="az">
    <path id="path5796" class="fil0 str0" d="M609 266c12,-7 19,-5 28,5 6,6 11,4 18,6 5,2 7,7 12,5 12,-5 -7,-18 -9,-19 -4,-4 -6,-8 -5,-10 0,-2 9,-6 6,-10 3,-1 18,8 21,15 3,4 9,6 11,9 1,5 2,9 7,12 4,2 9,4 14,4 4,0 7,-5 9,-9 1,-1 20,-12 17,-18 8,4 15,15 19,22 5,10 9,20 16,29 2,1 3,2 4,2 0,2 0,3 0,5 3,4 7,6 12,7 12,3 18,7 22,19 -4,-7 -16,-11 -23,-7 -9,4 -10,9 -13,18 -3,9 -2,15 -1,23 0,3 -4,6 -5,9 -1,5 1,9 -5,7 7,-5 -6,-10 -5,-3 1,10 -5,19 -2,30 -3,0 -8,0 -10,-2 -9,-8 -24,-19 -22,-24 1,-3 8,-2 8,-4 2,-5 -8,-14 4,-17 -9,-13 -17,-22 -29,-12 -11,9 -16,8 -18,11 -10,12 -14,12 -21,15 -2,-3 -4,-15 3,-15 -2,-2 -10,-7 -8,-11 1,-1 4,-2 2,-4 -2,-2 -5,-4 -7,-3 -9,1 -18,-15 -26,-22 4,-1 10,1 13,-4 3,-5 -4,-8 -7,-10 -6,-4 -23,-20 -8,-22 -2,-10 -13,-12 -19,-18 10,3 -2,-6 -3,-9z"/>
    <path id="path5798" class="fil0 str0" d="M602 339c7,0 17,-2 15,8 5,-2 8,4 13,3 2,0 10,-1 12,2 3,6 -3,7 5,12 3,2 5,16 8,20 -22,-4 -22,-6 -32,-16 -8,-8 -17,-17 -21,-29z"/>
   </g>
   <g>
    <path id="am" class="fil0" d="M550 265c4,1 15,5 22,3 10,-3 22,1 32,2 0,-2 3,-3 5,-3 1,1 13,12 3,8 6,6 17,8 19,18 -14,2 0,16 6,20 3,3 10,5 10,9 1,9 -10,6 -14,7 4,3 19,23 24,21 3,0 14,5 9,7 -7,3 4,9 6,12 -7,0 -5,12 -3,15 -1,1 -14,2 -14,0 -4,-7 -5,-18 -11,-23 -3,-2 0,-9 -4,-10 -3,-1 -6,-1 -10,0 -6,0 -8,-6 -13,-4 2,-11 -10,-7 -15,-8 -5,-5 -11,-17 -20,-17 -8,-1 -15,-2 -22,-7 3,-2 1,-6 1,-9 -2,-5 -2,-7 0,-11 5,-8 -10,-13 -11,-30l0 0zm0 0l0 0 0 0z"/>
    <path id="1" class="fil2 str0" d="M550 265c4,1 15,5 22,3 10,-3 22,1 32,2 0,-2 3,-3 5,-3 1,1 13,12 3,8 6,6 17,8 19,18 -14,2 0,16 6,20 3,3 10,5 10,9 1,9 -10,6 -14,7 4,3 19,23 24,21 3,0 14,5 9,7 -7,3 4,9 6,12 -7,0 -5,12 -3,15 -1,1 -14,2 -14,0 -4,-7 -5,-18 -11,-23 -3,-2 0,-9 -4,-10 -3,-1 -6,-1 -10,0 -6,0 -8,-6 -13,-4 2,-11 -10,-7 -15,-8 -5,-5 -11,-17 -20,-17 -8,-1 -15,-2 -22,-7 3,-2 1,-6 1,-9 -2,-5 -2,-7 0,-11 5,-8 -10,-13 -11,-30m0 0l0 0 0 0z"/>
   </g>
   <path id="tj" class="fil0 str0" d="M1448 458c4,-6 2,-16 13,-14 8,2 15,5 24,6 7,1 9,-4 8,-9 0,-2 0,-5 3,-5 6,-1 0,-7 6,-1 -3,-2 -4,-5 -4,-8 1,0 3,1 5,1 -2,-6 -10,-1 -13,-6 8,-6 17,4 26,1 -4,-3 0,-5 -2,-9 -2,-5 -4,-15 2,-16 6,-3 10,6 15,5 8,-1 18,-7 22,-13 4,3 6,9 10,12 5,5 2,8 -4,11 -8,5 -5,4 0,9 3,2 4,6 7,7 4,2 8,0 12,1 -4,3 -13,11 -18,11 6,-4 -13,-14 -17,-15 -11,-2 -18,3 -20,12 -7,-10 -5,12 -3,15 3,5 10,1 14,1 7,1 12,5 20,1 0,1 0,3 0,4 3,-1 8,-2 12,0 4,1 5,6 8,9 5,3 18,-4 23,-6 6,-3 4,3 6,5 2,1 4,1 7,2 1,1 1,3 2,5 6,6 13,0 20,10 3,-14 24,-6 33,-5 5,1 15,-5 18,-1 1,3 -1,8 1,11 3,5 8,9 9,13 -9,-1 -1,12 0,15 3,4 6,4 11,2 9,-3 10,-1 14,0 10,4 19,6 16,20 -1,2 -1,7 3,10 4,4 4,10 5,12 1,4 -2,7 0,10 2,3 5,3 7,8 1,3 -1,8 -5,9 -1,0 -5,-5 -7,-6 -3,-1 -14,-7 -17,-5 -7,4 -18,8 -24,4 11,-9 -14,-13 -20,-9 -6,4 -11,7 -15,13 -4,7 -14,1 -19,5 -35,28 -32,-21 -29,-42 3,-14 -6,-3 -11,-9 -2,-2 0,-10 0,-13 -1,-5 -10,-12 -13,-12 -16,-2 -19,13 -26,20 -4,3 1,7 2,10 3,8 -4,9 -11,7 -6,-3 -13,-4 -17,-2 -6,4 -1,8 -2,12 -1,17 -13,3 -14,0 -1,-2 -4,-5 -5,-4 -5,7 -6,1 -7,2 -2,1 -5,2 -7,3 -3,1 -9,1 -10,7 -5,-2 -7,3 -11,-1 -7,-6 -10,-21 -4,-30 8,-10 21,-20 8,-31 -10,-10 2,-30 -13,-32 -4,-1 -10,-1 -11,-6 -2,-6 -10,-4 -13,-11z"/>
   <g id="kh">
    <path id="path3472" class="fil0 str0" d="M2932 1971c-2,3 -5,4 -8,3 5,5 5,12 8,17 -1,-7 5,-14 0,-20z"/>
    <path id="path6024" class="fil0 str0" d="M2894 1922c-1,0 -2,0 -3,0 1,2 2,3 3,4 0,-1 0,-2 0,-4z"/>
    <path id="path6026" class="fil0 str0" d="M2902 1957c2,-3 1,-4 -3,-4 1,1 2,3 3,4z"/>
    <path id="path6044" class="fil0 str0" d="M2869 1831c0,-4 1,-8 0,-12 12,2 20,-16 25,-24 5,-10 27,-15 35,-8 3,3 8,2 14,2 7,-1 4,3 22,1 16,-1 8,16 20,7 -1,16 19,6 24,18 2,5 13,7 13,-1 0,-5 -9,-11 -3,-15 3,-1 5,3 6,-1 1,-4 4,-2 6,-2 3,0 3,-4 6,-4 3,0 6,5 9,7 10,10 26,0 33,-9 0,3 -1,7 -2,10 -1,3 -5,7 -5,10 0,4 -2,6 0,10 3,4 3,8 4,12 0,11 7,14 3,25 -2,5 -3,9 -2,15 1,4 2,10 2,14 2,20 -13,14 -16,15 -5,3 -7,6 -11,8 -10,6 -14,4 -21,3 3,5 -1,10 1,14 -4,-1 -15,-10 -19,-5 -2,3 -7,3 -7,8 1,5 2,10 4,15 2,5 11,6 11,13 -5,0 -1,4 -2,9 -3,-2 -7,-2 -10,-5 -3,-2 -3,-8 -8,-7 -8,0 -19,6 -25,-1 -5,3 0,10 -6,14 -6,5 -10,2 -16,3 -5,1 -6,4 -11,1 -5,-3 -15,-5 -17,-11 0,6 -8,9 -12,5 -4,-6 1,-6 4,-9 4,-4 1,-15 -2,-18 -6,-6 -8,7 -9,10 -4,-4 -6,1 -10,-1 -5,-4 0,-11 -1,-16 -1,-4 4,-9 0,-13 -3,-2 -8,-9 -1,-10 -3,-2 -5,0 -6,3 2,-7 -3,-13 -5,-19 -1,-7 3,-15 0,-21 -7,-13 -12,-25 -15,-40z"/>
   </g>
   <g id="lk">
    <path id="path6496" class="fil0 str0" d="M1949 1918c1,3 5,5 7,7 0,-3 -3,-6 -7,-7z"/>
    <path id="path6498" class="fil0 str0" d="M1947 1988c-2,17 -4,87 29,80 14,-3 37,-10 46,-23 7,-10 13,-30 6,-42 0,2 -6,-12 -7,-14 9,8 -1,-8 -3,-11 -3,-8 -2,-16 -5,-24 -3,2 -7,0 -8,-3 9,2 -9,-27 -10,-31 0,-4 -21,-35 -26,-31 5,2 7,7 10,10 -5,-3 -13,-18 -20,-10 2,4 8,6 11,9 1,-4 13,5 15,9 -2,-2 -15,-7 -18,-7 2,4 0,4 -3,6 -3,3 2,9 -2,14 -9,12 -10,35 -13,50 -6,-2 -2,-10 -1,-14 -7,8 -1,22 -1,32z"/>
    <path id="path6500" class="fil0 str0" d="M1958 1892c0,2 0,4 3,3 -1,-1 -2,-2 -3,-3z"/>
   </g>
   <path id="la" class="fil0 str0" d="M2778 1493c2,-6 1,-15 8,-19 3,-2 12,2 13,-4 -8,4 0,-9 1,-11 2,-4 2,-7 7,-8 4,-1 12,-5 11,-10 5,4 2,21 12,17 7,-2 6,4 12,5 7,1 1,-10 1,-11 -1,-6 4,-7 2,-10 -3,-7 -4,-11 -6,-15 -4,-5 -4,-11 -4,-14 -1,-4 2,-14 8,-12 2,1 1,4 2,4 14,-1 6,-1 12,2 0,0 1,3 4,8 4,5 9,10 13,15 3,4 3,12 8,14 4,-3 2,-9 3,-6 2,5 4,3 5,9 1,3 -2,8 -1,17 1,8 10,22 18,23 7,0 9,3 15,8 4,-4 4,-8 10,-10 7,-3 11,1 17,6 3,3 8,6 8,11 0,5 -7,3 -9,7 4,2 11,2 12,6 1,5 3,5 5,6 14,4 7,15 0,16 7,3 -9,11 -14,9 -2,0 -15,-6 -16,-3 -2,3 6,9 3,11 -3,2 -11,3 -4,8 5,4 4,1 9,5 5,4 15,15 20,19 3,3 25,8 20,11 -2,2 -4,3 1,12 2,5 6,10 9,10 4,1 6,8 7,11 2,7 6,12 10,18 3,3 15,16 17,17 5,2 9,15 10,16 3,6 1,13 4,17 0,2 2,7 4,8 2,0 5,-1 7,0 4,3 2,6 7,8 2,0 8,11 17,15 -3,4 -10,5 -12,9 -2,5 11,13 13,16 4,7 9,9 6,18 -2,2 -6,4 -6,6 0,2 1,1 2,8 2,7 -9,15 -22,17 -11,2 -15,-10 -19,-11 -3,-1 -2,3 -4,4 -3,0 -7,-2 -7,1 -1,3 -4,4 -7,2 0,-1 -4,2 -3,4 2,5 9,11 3,15 -3,3 -9,1 -12,-4 -1,-3 -10,-6 -15,-7 -6,0 -11,-8 -6,-12 4,-2 10,-5 10,-11 0,-5 3,-11 2,-16 -1,-2 -4,-4 -4,-8 1,-3 4,-5 5,-8 -1,1 -3,1 -4,0 0,-5 11,-9 5,-17 -3,-4 -17,-9 -7,-14 -14,-8 -28,-20 -29,-37 0,-14 7,-32 -6,-42 -13,-10 -15,-33 -31,-38 -2,-1 -29,-11 -21,0 -5,1 -7,13 -11,12 -1,0 -6,1 -9,3 -6,4 -9,-4 -10,-4 -9,-2 -11,-8 -15,-12 -6,-4 -8,10 -15,5 -2,10 -15,16 -22,22 -3,3 -7,1 -10,-3 -3,-3 1,-10 3,-13 3,-6 4,-9 4,-16 0,-4 -3,-11 -2,-14 1,-2 2,-3 4,-5 2,-3 1,-3 1,-6 0,-7 4,-11 1,-19 -4,-10 3,-24 -14,-21 -2,-1 -3,0 -4,1 -2,4 -2,1 -6,1 -5,0 -8,-4 -11,-9 -2,-8 9,-14 5,-21 -1,-2 -6,-10 -8,-11 -3,-3 -6,2 -10,3 0,-1 0,-3 0,-4z"/>
   <path id="tm" class="fil0 str0" d="M883 278c19,-25 51,-25 77,-9 13,8 18,20 26,32 12,15 25,12 43,15 8,2 15,3 23,4 8,1 4,-6 3,-8 -8,-20 -4,-22 6,-30 8,-6 21,5 23,-10 1,-13 16,5 21,7 -2,-2 -14,-16 -14,-16 0,-3 7,3 14,-3 3,-3 7,1 10,4 3,5 7,6 13,8 5,2 3,8 8,10 5,2 10,1 14,2 7,1 12,5 11,12 -2,7 7,7 8,14 -3,-1 -5,-1 -3,3 2,5 2,5 1,11 -2,8 19,13 24,13 7,0 11,3 17,5 8,3 5,-5 11,-4 14,2 20,18 25,29 7,10 13,21 16,32 5,13 23,22 34,30 12,9 31,28 38,30 8,2 21,13 34,23 11,8 17,17 30,18 6,0 12,4 18,9 6,4 13,5 13,6 2,4 -2,7 -2,10 0,6 0,16 3,19 -17,4 -23,-8 -27,-10 -9,-4 -9,4 -10,6 0,6 -5,7 -9,6 -5,-1 -11,-2 -16,-1 -5,3 -6,9 -7,14 -1,8 0,10 -2,18 -2,6 -4,10 -9,12 -14,6 -31,14 -46,10 1,4 3,6 5,9 -6,2 1,7 -10,13 -7,7 -19,1 -24,8 -1,-6 -5,-12 -12,-14 -10,-3 -8,1 -14,-3 -2,-1 -10,-10 -14,-9 -1,-2 -1,-10 -4,-14 -2,-6 -3,-1 -1,-8 2,-5 -1,-16 -2,-22 0,-7 -5,-7 -11,-7 -6,-1 -13,0 -18,-2 -7,-2 -10,-13 -15,-18 -6,-6 -18,-6 -22,-15 -5,-7 -7,-12 -15,-16 -9,-5 -16,-4 -25,-6 -8,-1 -13,-9 -20,-12 -6,-3 -20,-3 -23,-11 -2,-7 -4,-10 -11,-9 -4,0 -33,-11 -27,3 -10,1 -18,-6 -28,-5 -11,1 -19,7 -27,14 -4,3 -1,8 -5,11 -2,2 -5,3 -8,4 -6,1 -16,3 -21,-2 -4,-4 -4,-14 -5,-19 -1,-11 1,-22 -1,-33 0,-7 6,-16 1,-21 -2,-4 -9,-6 -8,-12 -1,8 -4,-2 -7,-5 -3,-4 -10,-9 -13,-3 -4,-6 -2,-14 5,-18 -9,7 9,7 12,8 -3,0 -4,-6 -5,-6 -4,1 -2,-6 -2,-8 1,-12 -16,-7 -22,-11 3,8 -4,1 -6,-1 -2,-3 -2,-7 -2,-11 1,-7 3,-14 4,-22 1,-3 3,-7 2,-11 -1,-2 -6,-9 -4,-7 1,0 0,-2 1,-2 1,1 3,11 8,12 -5,-1 -1,7 5,2 -1,2 0,5 5,0 0,4 5,9 7,-2 3,1 4,13 7,14 2,1 14,-2 11,-4 2,1 6,0 7,0 1,1 -4,4 6,3 0,1 -1,0 -1,0 0,-1 0,0 1,-1 -6,-1 -3,-2 -7,-8 2,-4 10,-1 8,3 8,3 13,-5 8,-10l3 1c-2,-10 -28,-19 -29,-26 0,-4 -6,-26 -11,-29 -15,-7 -31,6 -35,8 -2,1 -2,10 0,10 3,-7 3,5 2,10 0,2 6,19 3,16 -1,-4 -3,-9 -6,-12 -4,-5 -4,-11 -9,-15z"/>
   <path id="np" class="fil0 str0" d="M1978 999c2,-6 8,-9 5,-16 -1,-4 -1,-5 1,-9 5,-8 5,-6 9,-11 6,-8 11,-24 20,-16 1,2 3,6 6,4 5,-2 5,-6 5,-11 5,3 7,-4 10,-2 5,2 10,2 15,7 11,11 22,23 32,30 9,6 16,7 22,15 5,9 8,19 18,13 4,-3 10,0 13,4 5,4 5,13 7,15 6,6 19,16 25,17 5,0 9,-4 11,2 1,4 -5,5 -1,10 3,3 17,8 22,3 1,8 9,11 12,18 4,9 5,-6 7,-8 0,5 10,16 15,10 1,-2 3,-6 7,-3 3,2 5,1 8,4 9,8 12,8 19,9 7,1 20,-1 28,3 5,2 -3,24 -3,30 0,12 10,18 6,31 -3,11 -12,5 -22,5 -8,0 -19,1 -19,-10 -7,1 -11,7 -18,2 -4,-3 -20,-11 -25,-10 -8,2 -6,-2 -10,-7 -6,-8 -12,2 -19,-2 -3,-2 -8,-10 -14,-12 -8,-3 -7,-6 -9,-13 -3,-7 -35,-20 -33,-10 -4,-2 -9,-8 -15,-6 -7,3 -9,3 -17,-1 -4,-3 -11,-4 -12,-9 -2,-8 -9,-3 -14,-8 -5,-4 -10,-11 -16,-10 -8,1 -14,-7 -22,-12 -7,-4 -10,-11 -16,-16 -7,-6 -14,-9 -21,-15 -1,7 -8,0 -12,-3 -2,-3 -9,-8 -5,-12z"/>
   <g id="uz">
    <path id="path3470" class="fil0 str0" d="M1000 143l89 -15c8,-2 -13,23 -4,39 1,1 1,10 2,14 2,4 5,4 6,4l19 1c3,0 3,5 3,8 1,1 6,4 6,10 1,2 3,-3 4,-4 2,-2 29,3 28,3 8,-4 16,-13 17,-24 11,2 24,23 41,44 5,5 10,11 16,14 8,4 19,0 28,0 21,-2 42,11 62,8 5,0 11,-8 17,-4 7,5 10,13 18,17 7,5 9,11 13,18 5,7 8,4 16,4 0,12 -5,36 5,44 5,5 13,1 16,9 4,8 5,18 8,27 6,17 31,9 46,11 8,1 12,8 11,16 -3,11 15,12 21,15 0,-5 -6,-12 -2,-16 5,-3 5,-8 11,-9 6,-2 1,-8 4,-10 4,-4 14,-7 19,-10 5,-3 12,-2 16,-8 3,-2 6,-8 10,-9 5,0 5,4 11,-1 7,-6 12,-5 19,0 -9,6 -33,15 -36,27 5,0 7,4 11,5 5,2 10,-3 12,4 3,13 18,7 24,14 2,-2 2,-4 1,-6 2,0 4,0 5,-2 2,-3 1,-7 1,-11 3,7 8,8 12,15 5,7 13,4 12,14 10,-5 13,6 21,8 5,0 10,0 13,3 4,3 -6,5 -7,7 -4,5 -6,7 -16,2 -1,3 1,6 2,9 -2,-1 -25,-2 -14,5 -3,0 -7,3 -10,2 -3,1 -1,-5 -6,-1 -3,1 -5,-4 -7,-5 -7,-3 -11,-1 -16,0 -4,2 -5,1 -7,1 -9,1 -7,-6 -17,-12 -3,-2 9,-6 11,-9 1,-2 0,-5 -1,-6 -5,-3 -7,-9 -11,-13 -2,5 -20,18 -26,12 -4,-3 -12,-9 -15,0 0,2 0,7 2,11 2,5 -1,8 2,10 -8,3 -18,-7 -26,0 4,4 11,-1 13,5 -2,0 -4,-1 -5,-1 1,4 0,4 1,6 0,0 0,1 -1,2 -1,1 -5,0 -5,4 1,6 1,11 -7,12 -7,0 -21,-7 -27,-7 -1,0 -5,1 -6,2 -5,10 -3,10 -5,12 1,5 7,5 10,7 5,4 0,6 8,8 4,2 7,0 12,4 4,2 2,16 3,23 1,5 7,8 9,13 3,8 -4,16 -8,20 -7,6 -11,15 -5,29 -8,-8 -7,-6 -11,-6 -11,-1 -12,0 -16,-4 -2,-3 -5,-5 -8,-6 -4,-2 -10,0 -14,-1 -5,-5 -2,-11 -4,-15 -1,-5 8,-13 0,-17 -5,-2 -9,-3 -14,-7 -7,-6 -13,-5 -22,-7 -9,-3 -16,-12 -23,-18 -6,-5 -14,-8 -20,-15 -6,-5 -14,-6 -20,-11 -8,-7 -16,-13 -23,-19 -12,-11 -38,-23 -42,-38 -5,-15 -15,-24 -20,-39 -3,-8 -7,-13 -14,-18 -2,-1 -5,-3 -8,-3 -3,1 -2,5 -5,5 -8,0 -13,-6 -25,-6 -6,0 -12,-3 -18,-7 -1,0 -2,-2 -3,-4 -1,-2 1,-5 1,-8 -1,-2 -3,-6 -3,-8 1,-1 3,-1 4,0 -1,-7 -9,-6 -9,-14 1,-8 -4,-11 -12,-12 -4,-1 -15,-1 -16,-6 -2,-8 -10,-6 -15,-10 -2,-2 -7,-11 -11,-9 -5,3 -6,4 -12,3 -9,-2 10,14 11,17 -5,-2 -6,-5 -11,-8 -2,-1 -9,-7 -10,1 -3,16 -16,4 -24,11 -10,9 -10,11 -7,24 2,4 7,9 3,12 -2,3 -13,-1 -16,-1 -11,-2 -20,-3 -24,-4l-16 -171z"/>
    <path id="path7148" class="fil0 str0" d="M1098 131l26 18c0,6 -3,17 -8,20 0,-1 -1,-1 -1,-2 -2,4 4,9 3,13 -2,-7 0,1 -6,-4 -2,3 1,11 -7,7 0,0 -9,-14 -9,-16 1,-2 8,5 9,5 5,3 0,-14 -4,-7 -1,-4 1,-12 6,-11 -1,-2 -13,2 -11,-1 2,-3 6,-3 4,-7 -2,-4 -5,-11 -2,-15z"/>
   </g>
   <path id="bt" class="fil0 str0" d="M2321 1124c0,-3 1,-4 3,-5 3,-2 2,-8 5,-10 8,-4 12,-15 17,-21 6,-7 14,-13 24,-12 2,0 10,2 11,5 0,3 -2,6 1,8 6,2 13,2 19,3 4,0 5,7 9,4 4,-3 5,-4 10,-2 6,2 14,5 13,12 -2,9 -3,17 9,18 11,1 8,10 6,16 0,3 6,11 3,12 -8,2 -15,2 -21,-1 -3,-2 -10,2 -13,1 -6,0 -11,0 -16,-1 -8,-1 -13,-9 -21,-6 -6,3 -15,8 -22,4 -6,-3 -8,-8 -16,-9 -14,0 -17,-8 -21,-16z"/>
   <g id="kw">
    <g id="kw-">
     <path id="path5440" class="fil0 str0" d="M735 806c0,2 -11,17 1,17 10,0 1,-13 -1,-17z"/>
     <path id="path5486" class="fil0 str0" d="M670 839c18,-4 14,-40 32,-41 7,0 17,0 25,9 2,2 7,15 4,18 -4,-8 -13,3 -16,6 8,0 16,4 17,13 1,10 8,20 10,31 -6,-5 -23,0 -29,-5 -5,-4 -4,-12 -6,-18 -2,-7 -27,-8 -37,-13z"/>
    </g>
    <path id="kw." class="fil3 str1" d="M743 834c2,-18 -10,-34 -28,-36 -17,-2 -33,11 -35,28 -3,18 10,34 28,36 17,2 33,-11 35,-28z"/>
   </g>
   <path id="qa-" class="fil1 str0" d="M829 1035c0,-2 -1,-15 4,-8 0,-3 0,-14 3,-4 1,-10 7,-35 19,-19 3,4 9,7 8,13 0,3 -2,6 -4,9 -1,3 1,7 1,10 0,3 3,4 3,6 1,5 0,9 -2,12 -4,7 -4,12 -12,13 -6,2 -12,6 -15,-4 -3,-9 -4,-19 -5,-28z"/>
   <g id="bh">
    <path id="bh-" class="fil0 str0" d="M819 992c1,3 1,6 1,9 -2,3 3,6 3,10 2,-4 5,-26 -4,-19z"/>
    <path id="bh." class="fil3 str1" d="M845 987c2,-18 -11,-34 -28,-36 -18,-2 -34,11 -36,28 -2,18 11,34 28,36 18,2 34,-11 36,-28z"/>
   </g>
   <path class="fil2" d="M1531 950c1,-1 4,-4 5,-5 -1,0 -1,0 -2,-1 -1,-1 -1,-2 -1,-3 1,-4 5,-2 8,-1 1,0 1,-1 2,-2 3,-3 16,-18 18,-18 1,-1 5,1 5,1l-2 4c-1,2 -1,3 -2,4l-12 21c0,1 -2,3 -2,5 2,0 12,3 15,4l7 3c1,0 2,1 3,0 1,0 4,-3 4,-4 5,-5 5,-6 10,-5l-7 13c1,2 2,2 3,4 -1,1 -3,0 -4,1l0 15c-1,0 -4,-1 -5,-2 -1,-3 -2,-11 -3,-12 -1,-2 -3,-1 -5,-2 -2,0 -4,0 -5,0 -3,-1 -15,-4 -16,-4l0 39c0,0 -4,-1 -5,-2 -1,0 -2,-4 -2,-5l-5 -19c-1,-4 -1,-3 -4,-3 -1,-1 -4,-1 -3,-4 0,-1 0,-2 1,-3 1,0 2,0 3,0 0,-1 -1,-5 -2,-7 -1,0 -5,-1 -7,-1 -2,-1 -5,-2 -7,-2 -2,-1 -5,-1 -7,-3 -2,-1 -6,-5 -6,-7 1,-2 6,-3 8,-3 4,-1 10,1 15,2 2,1 5,2 7,2z"/>
  </g>
 </g>
</svg>
